<svg width="478" height="400" viewBox="0 0 478 400" fill="none" xmlns="http://www.w3.org/2000/svg">
<circle cx="237" cy="200" r="198.5" stroke="#B0E2E2" stroke-width="3"/>
<rect x="0.5" y="169.5" width="82" height="40" rx="9.5" fill="white"/>
<rect x="0.5" y="169.5" width="82" height="40" rx="9.5" stroke="#B0E2E2"/>
<path opacity="0.4" d="M26.24 185.808V185.81V194.19C26.24 195.861 25.7449 197.104 24.9197 197.93C24.0945 198.755 22.8508 199.25 21.18 199.25H12.81C11.1392 199.25 9.89575 198.755 9.07066 197.929C8.24546 197.103 7.75 195.856 7.75 194.18V185.81C7.75 184.139 8.24514 182.896 9.07033 182.07C9.89552 181.245 11.1392 180.75 12.81 180.75H21.19C22.861 180.75 24.1043 181.245 24.9281 182.07C25.7517 182.895 26.2446 184.138 26.24 185.808Z" fill="#B0E2E2" stroke="#00A3A3" stroke-width="1.5"/>
<mask id="path-4-inside-1_750_9476" fill="white">
<path d="M11.8799 196.9C11.4699 196.9 11.1299 196.56 11.1299 196.15V194.08C11.1299 193.67 11.4699 193.33 11.8799 193.33C12.2899 193.33 12.6299 193.67 12.6299 194.08V196.15C12.6299 196.57 12.2899 196.9 11.8799 196.9Z"/>
</mask>
<path d="M11.8799 196.9C11.4699 196.9 11.1299 196.56 11.1299 196.15V194.08C11.1299 193.67 11.4699 193.33 11.8799 193.33C12.2899 193.33 12.6299 193.67 12.6299 194.08V196.15C12.6299 196.57 12.2899 196.9 11.8799 196.9Z" fill="#B0E2E2"/>
<path d="M11.8799 195.4C12.2983 195.4 12.6299 195.732 12.6299 196.15H9.62988C9.62988 197.389 10.6415 198.4 11.8799 198.4V195.4ZM12.6299 196.15V194.08H9.62988V196.15H12.6299ZM12.6299 194.08C12.6299 194.499 12.2983 194.83 11.8799 194.83V191.83C10.6415 191.83 9.62988 192.842 9.62988 194.08H12.6299ZM11.8799 194.83C11.4615 194.83 11.1299 194.499 11.1299 194.08H14.1299C14.1299 192.842 13.1183 191.83 11.8799 191.83V194.83ZM11.1299 194.08V196.15H14.1299V194.08H11.1299ZM11.1299 196.15C11.1299 195.729 11.4745 195.4 11.8799 195.4V198.4C13.1052 198.4 14.1299 197.412 14.1299 196.15H11.1299Z" fill="#00A3A3" mask="url(#path-4-inside-1_750_9476)"/>
<mask id="path-6-inside-2_750_9476" fill="white">
<path d="M17 196.9C16.59 196.9 16.25 196.56 16.25 196.15V192C16.25 191.59 16.59 191.25 17 191.25C17.41 191.25 17.75 191.59 17.75 192V196.15C17.75 196.57 17.41 196.9 17 196.9Z"/>
</mask>
<path d="M17 196.9C16.59 196.9 16.25 196.56 16.25 196.15V192C16.25 191.59 16.59 191.25 17 191.25C17.41 191.25 17.75 191.59 17.75 192V196.15C17.75 196.57 17.41 196.9 17 196.9Z" fill="#B0E2E2"/>
<path d="M17 195.4C17.4184 195.4 17.75 195.732 17.75 196.15H14.75C14.75 197.388 15.7616 198.4 17 198.4V195.4ZM17.75 196.15V192H14.75V196.15H17.75ZM17.75 192C17.75 192.418 17.4184 192.75 17 192.75V189.75C15.7616 189.75 14.75 190.762 14.75 192H17.75ZM17 192.75C16.5816 192.75 16.25 192.418 16.25 192H19.25C19.25 190.762 18.2384 189.75 17 189.75V192.75ZM16.25 192V196.15H19.25V192H16.25ZM16.25 196.15C16.25 195.729 16.5946 195.4 17 195.4V198.4C18.2254 198.4 19.25 197.411 19.25 196.15H16.25Z" fill="#00A3A3" mask="url(#path-6-inside-2_750_9476)"/>
<mask id="path-8-inside-3_750_9476" fill="white">
<path d="M22.1201 196.9C21.7101 196.9 21.3701 196.56 21.3701 196.15V189.93C21.3701 189.52 21.7101 189.18 22.1201 189.18C22.5301 189.18 22.8701 189.52 22.8701 189.93V196.15C22.8701 196.57 22.5401 196.9 22.1201 196.9Z"/>
</mask>
<path d="M22.1201 196.9C21.7101 196.9 21.3701 196.56 21.3701 196.15V189.93C21.3701 189.52 21.7101 189.18 22.1201 189.18C22.5301 189.18 22.8701 189.52 22.8701 189.93V196.15C22.8701 196.57 22.5401 196.9 22.1201 196.9Z" fill="#B0E2E2"/>
<path d="M22.1201 195.4C22.5385 195.4 22.8701 195.732 22.8701 196.15H19.8701C19.8701 197.389 20.8817 198.4 22.1201 198.4V195.4ZM22.8701 196.15V189.93H19.8701V196.15H22.8701ZM22.8701 189.93C22.8701 190.349 22.5385 190.68 22.1201 190.68V187.68C20.8817 187.68 19.8701 188.692 19.8701 189.93H22.8701ZM22.1201 190.68C21.7017 190.68 21.3701 190.349 21.3701 189.93H24.3701C24.3701 188.692 23.3585 187.68 22.1201 187.68V190.68ZM21.3701 189.93V196.15H24.3701V189.93H21.3701ZM21.3701 196.15C21.3701 195.742 21.7117 195.4 22.1201 195.4V198.4C23.3685 198.4 24.3701 197.399 24.3701 196.15H21.3701Z" fill="#00A3A3" mask="url(#path-8-inside-3_750_9476)"/>
<path d="M22.1172 183.841C22.1181 183.842 22.119 183.844 22.1199 183.845C22.1199 183.845 22.12 183.845 22.12 183.845V183.845V183.845V183.845V183.845V183.846V183.846V183.846V183.846V183.846V183.846V183.846V183.846V183.846V183.846V183.846V183.846V183.846V183.846V183.846V183.846V183.846V183.847V183.847V183.847V183.847V183.847V183.847V183.847V183.847V183.847V183.847V183.847V183.847V183.847V183.847V183.847V183.847V183.847V183.848V183.848V183.848V183.848V183.848V183.848V183.848V183.848V183.848V183.848V183.848V183.848V183.848V183.848V183.848V183.848V183.848V183.849V183.849V183.849V183.849V183.849V183.849V183.849V183.849V183.849V183.849V183.849V183.849V183.849V183.849V183.849V183.849V183.849V183.85V183.85V183.85V183.85V183.85V183.85C22.1192 183.849 22.1183 183.849 22.1175 183.849C22.1161 183.848 22.1146 183.848 22.1132 183.847C22.1129 183.846 22.1127 183.845 22.1124 183.844L22.1172 183.841ZM11.8804 190.439C11.8811 190.438 11.8817 190.438 11.882 190.438L22.12 183.964L20.8325 185.287C18.3858 187.801 15.3292 189.576 11.9082 190.435L11.8992 190.436C11.8911 190.438 11.8851 190.439 11.8804 190.439ZM22.1208 183.85C22.1207 183.849 22.1207 183.848 22.1206 183.846C22.1214 183.848 22.1222 183.849 22.123 183.85C22.1223 183.85 22.1215 183.85 22.1208 183.85Z" fill="#B0E2E2" stroke="#00A3A3" stroke-width="1.5"/>
<path d="M31.5911 195.5H29.6223L33.2069 185.318H35.4838L39.0733 195.5H37.1046L34.3851 187.406H34.3056L31.5911 195.5ZM31.6557 191.508H37.025V192.989H31.6557V191.508ZM40.3349 198.364V187.864H42.1048V189.126H42.2092C42.302 188.941 42.4329 188.744 42.6019 188.535C42.771 188.323 42.9996 188.142 43.288 187.993C43.5763 187.84 43.9442 187.764 44.3917 187.764C44.9817 187.764 45.5136 187.915 45.9876 188.217C46.4648 188.515 46.8427 188.957 47.1211 189.544C47.4028 190.127 47.5437 190.843 47.5437 191.692C47.5437 192.53 47.4061 193.243 47.131 193.83C46.8559 194.416 46.4814 194.864 46.0075 195.172C45.5335 195.48 44.9966 195.634 44.3967 195.634C43.9592 195.634 43.5962 195.561 43.3079 195.415C43.0195 195.27 42.7875 195.094 42.6119 194.888C42.4395 194.68 42.3053 194.482 42.2092 194.297H42.1346V198.364H40.3349ZM42.0998 191.682C42.0998 192.176 42.1694 192.608 42.3086 192.979C42.4511 193.351 42.6549 193.641 42.9201 193.849C43.1886 194.055 43.5134 194.158 43.8945 194.158C44.2923 194.158 44.6254 194.052 44.8938 193.839C45.1623 193.624 45.3645 193.331 45.5004 192.96C45.6396 192.585 45.7092 192.159 45.7092 191.682C45.7092 191.208 45.6412 190.787 45.5053 190.419C45.3694 190.051 45.1673 189.763 44.8988 189.554C44.6303 189.345 44.2956 189.241 43.8945 189.241C43.5101 189.241 43.1836 189.342 42.9151 189.544C42.6467 189.746 42.4428 190.03 42.3036 190.394C42.1677 190.759 42.0998 191.188 42.0998 191.682ZM52.4656 195.649C51.6999 195.649 51.0387 195.49 50.4819 195.172C49.9284 194.85 49.5025 194.396 49.2042 193.81C48.9059 193.22 48.7567 192.525 48.7567 191.727C48.7567 190.941 48.9059 190.252 49.2042 189.658C49.5058 189.062 49.9267 188.598 50.467 188.266C51.0072 187.932 51.6419 187.764 52.3711 187.764C52.8417 187.764 53.2859 187.84 53.7035 187.993C54.1244 188.142 54.4956 188.374 54.8171 188.689C55.1419 189.004 55.3971 189.405 55.5827 189.892C55.7683 190.376 55.8612 190.953 55.8612 191.622V192.174H49.6019V190.961H54.136C54.1327 190.616 54.0581 190.31 53.9123 190.041C53.7665 189.769 53.5626 189.556 53.3008 189.4C53.0423 189.244 52.7406 189.166 52.396 189.166C52.0281 189.166 51.7049 189.256 51.4265 189.435C51.1481 189.61 50.931 189.842 50.7752 190.131C50.6228 190.416 50.5449 190.729 50.5415 191.07V192.129C50.5415 192.573 50.6228 192.955 50.7852 193.273C50.9476 193.588 51.1746 193.83 51.4663 193.999C51.7579 194.164 52.0993 194.247 52.4904 194.247C52.7522 194.247 52.9892 194.211 53.2013 194.138C53.4135 194.062 53.5974 193.951 53.7532 193.805C53.909 193.659 54.0266 193.478 54.1062 193.263L55.7866 193.452C55.6805 193.896 55.4783 194.284 55.18 194.615C54.8851 194.943 54.5072 195.198 54.0465 195.381C53.5858 195.56 53.0588 195.649 52.4656 195.649ZM58.6912 187.864L60.2324 190.683L61.7985 187.864H63.7026L61.4007 191.682L63.7424 195.5H61.8482L60.2324 192.751L58.6316 195.5H56.7225L59.0492 191.682L56.7821 187.864H58.6912ZM72.0822 185.179C72.5694 185.182 73.0434 185.268 73.5041 185.438C73.9681 185.603 74.3857 185.875 74.7569 186.253C75.1281 186.627 75.4231 187.129 75.6419 187.759C75.8606 188.389 75.97 189.168 75.97 190.096C75.9733 190.971 75.8805 191.753 75.6916 192.442C75.506 193.129 75.2392 193.709 74.8912 194.183C74.5431 194.656 74.1239 195.018 73.6333 195.266C73.1428 195.515 72.591 195.639 71.9778 195.639C71.3348 195.639 70.7647 195.513 70.2676 195.261C69.7737 195.009 69.3743 194.665 69.0694 194.227C68.7645 193.79 68.5772 193.289 68.5076 192.726H70.3223C70.4151 193.13 70.604 193.452 70.889 193.69C71.1774 193.926 71.5403 194.043 71.9778 194.043C72.6838 194.043 73.2273 193.737 73.6085 193.124C73.9896 192.51 74.1802 191.659 74.1802 190.568H74.1106C73.9482 190.86 73.7377 191.112 73.4792 191.324C73.2207 191.533 72.9274 191.693 72.5993 191.806C72.2744 191.919 71.9297 191.975 71.5652 191.975C70.9686 191.975 70.4316 191.833 69.9544 191.548C69.4804 191.263 69.1042 190.871 68.8258 190.374C68.5507 189.877 68.4115 189.309 68.4082 188.669C68.4082 188.006 68.5607 187.411 68.8656 186.884C69.1738 186.354 69.603 185.936 70.1532 185.631C70.7034 185.323 71.3464 185.172 72.0822 185.179ZM72.0872 186.67C71.7292 186.67 71.4061 186.758 71.1177 186.934C70.8327 187.106 70.6073 187.342 70.4416 187.64C70.2792 187.935 70.198 188.265 70.198 188.629C70.2013 188.991 70.2825 189.319 70.4416 189.614C70.604 189.909 70.8244 190.142 71.1028 190.315C71.3845 190.487 71.706 190.573 72.0673 190.573C72.3358 190.573 72.586 190.522 72.818 190.419C73.05 190.316 73.2522 190.174 73.4245 189.991C73.6002 189.806 73.7361 189.595 73.8322 189.36C73.9316 189.125 73.9797 188.876 73.9764 188.614C73.9764 188.266 73.8935 187.945 73.7278 187.65C73.5654 187.355 73.3417 187.118 73.0566 186.939C72.7749 186.76 72.4518 186.67 72.0872 186.67Z" fill="black"/>
<rect x="395.5" y="169.5" width="82" height="40" rx="9.5" fill="white"/>
<rect x="395.5" y="169.5" width="82" height="40" rx="9.5" stroke="#B0E2E2"/>
<path d="M414.97 200C420.493 200 424.97 195.523 424.97 190C424.97 184.477 420.493 180 414.97 180C409.447 180 404.97 184.477 404.97 190C404.97 195.523 409.447 200 414.97 200Z" fill="#E6F6F6" stroke="#00A3A3" stroke-width="1.5" stroke-linecap="round" stroke-linejoin="round"/>
<path d="M415 194.5C417.485 194.5 419.5 192.485 419.5 190C419.5 187.515 417.485 185.5 415 185.5C412.515 185.5 410.5 187.515 410.5 190C410.5 192.485 412.515 194.5 415 194.5Z" fill="#E6F6F6" stroke="#00A3A3" stroke-width="1.5" stroke-linecap="round" stroke-linejoin="round"/>
<path d="M407.9 182.93L411.44 186.46" stroke="#00A3A3" stroke-width="1.5" stroke-linecap="round" stroke-linejoin="round"/>
<path d="M407.9 197.07L411.44 193.54" stroke="#00A3A3" stroke-width="1.5" stroke-linecap="round" stroke-linejoin="round"/>
<path d="M422.05 197.07L418.51 193.54" stroke="#00A3A3" stroke-width="1.5" stroke-linecap="round" stroke-linejoin="round"/>
<path d="M422.05 182.93L418.51 186.46" stroke="#00A3A3" stroke-width="1.5" stroke-linecap="round" stroke-linejoin="round"/>
<path d="M428.106 195.5V185.318H434.629V186.864H429.95V189.629H434.181V191.175H429.95V195.5H428.106ZM438.029 185.318V195.5H436.229V185.318H438.029ZM444.747 192.288V187.864H446.547V195.5H444.802V194.143H444.722C444.55 194.57 444.266 194.92 443.872 195.192C443.481 195.464 442.999 195.599 442.425 195.599C441.925 195.599 441.482 195.488 441.098 195.266C440.717 195.041 440.418 194.714 440.203 194.287C439.988 193.856 439.88 193.336 439.88 192.726V187.864H441.68V192.447C441.68 192.931 441.812 193.316 442.077 193.601C442.342 193.886 442.69 194.028 443.121 194.028C443.386 194.028 443.643 193.964 443.892 193.835C444.14 193.705 444.344 193.513 444.503 193.258C444.666 192.999 444.747 192.676 444.747 192.288ZM449.869 187.864L451.41 190.683L452.976 187.864H454.88L452.578 191.682L454.92 195.5H453.026L451.41 192.751L449.809 195.5H447.9L450.227 191.682L447.96 187.864H449.869ZM463.26 185.179C463.747 185.182 464.221 185.268 464.682 185.438C465.146 185.603 465.563 185.875 465.935 186.253C466.306 186.627 466.601 187.129 466.82 187.759C467.038 188.389 467.148 189.168 467.148 190.096C467.151 190.971 467.058 191.753 466.869 192.442C466.684 193.129 466.417 193.709 466.069 194.183C465.721 194.656 465.302 195.018 464.811 195.266C464.321 195.515 463.769 195.639 463.156 195.639C462.513 195.639 461.942 195.513 461.445 195.261C460.951 195.009 460.552 194.665 460.247 194.227C459.942 193.79 459.755 193.289 459.685 192.726H461.5C461.593 193.13 461.782 193.452 462.067 193.69C462.355 193.926 462.718 194.043 463.156 194.043C463.862 194.043 464.405 193.737 464.786 193.124C465.167 192.51 465.358 191.659 465.358 190.568H465.288C465.126 190.86 464.915 191.112 464.657 191.324C464.398 191.533 464.105 191.693 463.777 191.806C463.452 191.919 463.107 191.975 462.743 191.975C462.146 191.975 461.609 191.833 461.132 191.548C460.658 191.263 460.282 190.871 460.004 190.374C459.728 189.877 459.589 189.309 459.586 188.669C459.586 188.006 459.738 187.411 460.043 186.884C460.352 186.354 460.781 185.936 461.331 185.631C461.881 185.323 462.524 185.172 463.26 185.179ZM463.265 186.67C462.907 186.67 462.584 186.758 462.295 186.934C462.01 187.106 461.785 187.342 461.619 187.64C461.457 187.935 461.376 188.265 461.376 188.629C461.379 188.991 461.46 189.319 461.619 189.614C461.782 189.909 462.002 190.142 462.281 190.315C462.562 190.487 462.884 190.573 463.245 190.573C463.513 190.573 463.764 190.522 463.996 190.419C464.228 190.316 464.43 190.174 464.602 189.991C464.778 189.806 464.914 189.595 465.01 189.36C465.109 189.125 465.157 188.876 465.154 188.614C465.154 188.266 465.071 187.945 464.906 187.65C464.743 187.355 464.519 187.118 464.234 186.939C463.953 186.76 463.629 186.67 463.265 186.67Z" fill="black"/>
<circle cx="236.698" cy="193.698" r="138.198" stroke="#B0E2E2" stroke-width="3"/>
<rect x="174.5" y="308.5" width="104" height="40" rx="9.5" fill="white"/>
<rect x="174.5" y="308.5" width="104" height="40" rx="9.5" stroke="#B0E2E2"/>
<g opacity="0.6">
<path opacity="0.6" d="M196.4 326C196.4 326.138 196.288 326.25 196.15 326.25C196.012 326.25 195.9 326.138 195.9 326C195.9 325.862 196.012 325.75 196.15 325.75C196.288 325.75 196.4 325.862 196.4 326Z" fill="#00A3A3" stroke="#B0E2E2" stroke-width="1.5"/>
<path opacity="0.6" d="M196.4 332C196.4 332.138 196.288 332.25 196.15 332.25C196.012 332.25 195.9 332.138 195.9 332C195.9 331.862 196.012 331.75 196.15 331.75C196.288 331.75 196.4 331.862 196.4 332Z" fill="#00A3A3" stroke="#B0E2E2" stroke-width="1.5"/>
<path opacity="0.6" d="M199 329C199 329.138 198.888 329.25 198.75 329.25C198.612 329.25 198.5 329.138 198.5 329C198.5 328.862 198.612 328.75 198.75 328.75C198.888 328.75 199 328.862 199 329Z" fill="#00A3A3" stroke="#B0E2E2" stroke-width="1.5"/>
<path opacity="0.6" d="M186.05 326C186.05 326.138 185.938 326.25 185.8 326.25C185.662 326.25 185.55 326.138 185.55 326C185.55 325.862 185.662 325.75 185.8 325.75C185.938 325.75 186.05 325.862 186.05 326Z" fill="#00A3A3" stroke="#B0E2E2" stroke-width="1.5"/>
<path opacity="0.6" d="M186.05 332C186.05 332.138 185.938 332.25 185.8 332.25C185.662 332.25 185.55 332.138 185.55 332C185.55 331.862 185.662 331.75 185.8 331.75C185.938 331.75 186.05 331.862 186.05 332Z" fill="#00A3A3" stroke="#B0E2E2" stroke-width="1.5"/>
<path opacity="0.6" d="M183.45 329C183.45 329.138 183.338 329.25 183.2 329.25C183.062 329.25 182.95 329.138 182.95 329C182.95 328.862 183.062 328.75 183.2 328.75C183.338 328.75 183.45 328.862 183.45 329Z" fill="#00A3A3" stroke="#B0E2E2" stroke-width="1.5"/>
<path opacity="0.6" d="M195.15 322.2C195.15 322.338 195.038 322.45 194.9 322.45C194.762 322.45 194.65 322.338 194.65 322.2C194.65 322.062 194.762 321.95 194.9 321.95C195.038 321.95 195.15 322.062 195.15 322.2Z" fill="#00A3A3" stroke="#B0E2E2" stroke-width="1.5"/>
<path opacity="0.6" d="M187.35 322.2C187.35 322.338 187.238 322.45 187.1 322.45C186.962 322.45 186.85 322.338 186.85 322.2C186.85 322.062 186.962 321.95 187.1 321.95C187.238 321.95 187.35 322.062 187.35 322.2Z" fill="#00A3A3" stroke="#B0E2E2" stroke-width="1.5"/>
<path opacity="0.6" d="M191.3 323C191.3 323.138 191.188 323.25 191.05 323.25C190.912 323.25 190.8 323.138 190.8 323C190.8 322.862 190.912 322.75 191.05 322.75C191.188 322.75 191.3 322.862 191.3 323Z" fill="#00A3A3" stroke="#B0E2E2" stroke-width="1.5"/>
<path opacity="0.6" d="M195.15 336C195.15 336.138 195.038 336.25 194.9 336.25C194.762 336.25 194.65 336.138 194.65 336C194.65 335.862 194.762 335.75 194.9 335.75C195.038 335.75 195.15 335.862 195.15 336Z" fill="#00A3A3" stroke="#B0E2E2" stroke-width="1.5"/>
<path opacity="0.6" d="M187.35 336C187.35 336.138 187.238 336.25 187.1 336.25C186.962 336.25 186.85 336.138 186.85 336C186.85 335.862 186.962 335.75 187.1 335.75C187.238 335.75 187.35 335.862 187.35 336Z" fill="#00A3A3" stroke="#B0E2E2" stroke-width="1.5"/>
<path opacity="0.6" d="M191.3 335.2C191.3 335.338 191.188 335.45 191.05 335.45C190.912 335.45 190.8 335.338 190.8 335.2C190.8 335.062 190.912 334.95 191.05 334.95C191.188 334.95 191.3 335.062 191.3 335.2Z" fill="#00A3A3" stroke="#B0E2E2" stroke-width="1.5"/>
</g>
<path d="M193.25 326C193.25 326.276 193.026 326.5 192.75 326.5C192.474 326.5 192.25 326.276 192.25 326C192.25 325.724 192.474 325.5 192.75 325.5C193.026 325.5 193.25 325.724 193.25 326Z" fill="#00A3A3" stroke="#B0E2E2" stroke-width="1.5"/>
<path d="M189.75 326C189.75 326.276 189.526 326.5 189.25 326.5C188.974 326.5 188.75 326.276 188.75 326C188.75 325.724 188.974 325.5 189.25 325.5C189.526 325.5 189.75 325.724 189.75 326Z" fill="#00A3A3" stroke="#B0E2E2" stroke-width="1.5"/>
<path d="M195 329C195 329.276 194.776 329.5 194.5 329.5C194.224 329.5 194 329.276 194 329C194 328.724 194.224 328.5 194.5 328.5C194.776 328.5 195 328.724 195 329Z" fill="#00A3A3" stroke="#B0E2E2" stroke-width="1.5"/>
<path d="M188 329C188 329.276 187.776 329.5 187.5 329.5C187.224 329.5 187 329.276 187 329C187 328.724 187.224 328.5 187.5 328.5C187.776 328.5 188 328.724 188 329Z" fill="#00A3A3" stroke="#B0E2E2" stroke-width="1.5"/>
<path d="M189.75 332C189.75 332.276 189.526 332.5 189.25 332.5C188.974 332.5 188.75 332.276 188.75 332C188.75 331.724 188.974 331.5 189.25 331.5C189.526 331.5 189.75 331.724 189.75 332Z" fill="#00A3A3" stroke="#B0E2E2" stroke-width="1.5"/>
<path d="M193.25 332C193.25 332.276 193.026 332.5 192.75 332.5C192.474 332.5 192.25 332.276 192.25 332C192.25 331.724 192.474 331.5 192.75 331.5C193.026 331.5 193.25 331.724 193.25 332Z" fill="#00A3A3" stroke="#B0E2E2" stroke-width="1.5"/>
<g opacity="0.4">
<path opacity="0.4" d="M191 320.33C190.51 320.33 190.12 319.94 190.12 319.45C190.12 318.96 190.51 318.58 191 318.58C191.49 318.58 191.88 318.97 191.88 319.46C191.88 319.95 191.49 320.33 191 320.33Z" fill="#00A3A3"/>
</g>
<g opacity="0.4">
<path opacity="0.4" d="M196.25 320.6C195.83 320.6 195.49 320.26 195.49 319.85C195.49 319.44 195.83 319.1 196.24 319.1C196.65 319.1 197 319.44 197 319.85C197 320.26 196.67 320.6 196.25 320.6Z" fill="#00A3A3"/>
</g>
<g opacity="0.4">
<path opacity="0.4" d="M185.75 320.6C185.34 320.6 185 320.26 185 319.85C185 319.44 185.33 319.1 185.75 319.1H185.76C186.17 319.1 186.51 319.44 186.51 319.85C186.51 320.26 186.17 320.6 185.75 320.6Z" fill="#00A3A3"/>
</g>
<g opacity="0.4">
<path opacity="0.4" d="M191 339.38C190.51 339.38 190.12 338.99 190.12 338.5C190.12 338.01 190.51 337.62 191 337.62C191.49 337.62 191.88 338.01 191.88 338.5C191.88 338.99 191.49 339.38 191 339.38Z" fill="#00A3A3"/>
</g>
<g opacity="0.4">
<path opacity="0.4" d="M196.25 338.85C195.83 338.85 195.49 338.51 195.49 338.1C195.49 337.69 195.83 337.35 196.24 337.35C196.65 337.35 197 337.69 197 338.1C197 338.51 196.67 338.85 196.25 338.85Z" fill="#00A3A3"/>
</g>
<g opacity="0.4">
<path opacity="0.4" d="M185.75 338.85C185.34 338.85 185 338.51 185 338.1C185 337.69 185.33 337.35 185.75 337.35H185.76C186.17 337.35 186.51 337.69 186.51 338.1C186.51 338.51 186.17 338.85 185.75 338.85Z" fill="#00A3A3"/>
</g>
<g opacity="0.4">
<path opacity="0.4" d="M180.55 329.88C180.07 329.88 179.67 329.49 179.67 329.01V329C179.67 328.52 180.06 328.12 180.55 328.12C181.04 328.12 181.42 328.51 181.42 329C181.42 329.49 181.03 329.88 180.55 329.88Z" fill="#00A3A3"/>
</g>
<g opacity="0.4">
<path opacity="0.4" d="M182.75 334.75C182.34 334.75 182 334.41 182 334V333.99C182 333.58 182.34 333.24 182.75 333.24C183.16 333.24 183.5 333.58 183.5 333.99C183.5 334.4 183.16 334.75 182.75 334.75Z" fill="#00A3A3"/>
</g>
<g opacity="0.4">
<path opacity="0.4" d="M182.75 324.76C182.34 324.76 182 324.42 182 324.01C182 323.6 182.34 323.26 182.75 323.26C183.16 323.26 183.5 323.59 183.5 324V324.01C183.5 324.42 183.16 324.76 182.75 324.76Z" fill="#00A3A3"/>
</g>
<g opacity="0.4">
<path opacity="0.4" d="M201.5 329.88C201.02 329.88 200.62 329.49 200.62 329.01V329C200.62 328.52 201.01 328.12 201.5 328.12C201.99 328.12 202.38 328.51 202.38 329C202.38 329.49 201.98 329.88 201.5 329.88Z" fill="#00A3A3"/>
</g>
<g opacity="0.4">
<path opacity="0.4" d="M199.3 334.75C198.89 334.75 198.55 334.42 198.55 334V333.99C198.55 333.58 198.89 333.24 199.3 333.24C199.71 333.24 200.05 333.58 200.05 333.99C200.05 334.4 199.71 334.75 199.3 334.75Z" fill="#00A3A3"/>
</g>
<g opacity="0.4">
<path opacity="0.4" d="M199.3 324.76C198.89 324.76 198.55 324.42 198.55 324.01C198.55 323.6 198.89 323.26 199.3 323.26C199.71 323.26 200.05 323.59 200.05 324V324.01C200.05 324.42 199.71 324.76 199.3 324.76Z" fill="#00A3A3"/>
</g>
<path d="M204.381 334.5V324.318H208.279C209.015 324.318 209.626 324.434 210.113 324.666C210.604 324.895 210.97 325.208 211.212 325.606C211.457 326.004 211.58 326.454 211.58 326.958C211.58 327.372 211.501 327.727 211.341 328.022C211.182 328.314 210.969 328.551 210.7 328.733C210.432 328.915 210.132 329.046 209.8 329.126V329.225C210.162 329.245 210.508 329.356 210.839 329.558C211.174 329.757 211.448 330.039 211.66 330.403C211.872 330.768 211.978 331.209 211.978 331.726C211.978 332.253 211.85 332.727 211.595 333.148C211.34 333.565 210.955 333.895 210.442 334.137C209.928 334.379 209.282 334.5 208.503 334.5H204.381ZM206.226 332.959H208.209C208.879 332.959 209.361 332.831 209.656 332.576C209.954 332.317 210.104 331.986 210.104 331.582C210.104 331.28 210.029 331.008 209.88 330.766C209.731 330.521 209.519 330.329 209.243 330.19C208.968 330.047 208.64 329.976 208.259 329.976H206.226V332.959ZM206.226 328.648H208.05C208.368 328.648 208.655 328.59 208.91 328.474C209.166 328.355 209.366 328.188 209.512 327.972C209.661 327.754 209.736 327.495 209.736 327.197C209.736 326.802 209.596 326.478 209.318 326.222C209.043 325.967 208.634 325.839 208.09 325.839H206.226V328.648ZM216.834 334.649C216.088 334.649 215.442 334.485 214.895 334.157C214.348 333.829 213.924 333.37 213.622 332.78C213.324 332.19 213.175 331.5 213.175 330.712C213.175 329.923 213.324 329.232 213.622 328.638C213.924 328.045 214.348 327.585 214.895 327.256C215.442 326.928 216.088 326.764 216.834 326.764C217.58 326.764 218.226 326.928 218.773 327.256C219.32 327.585 219.742 328.045 220.04 328.638C220.342 329.232 220.493 329.923 220.493 330.712C220.493 331.5 220.342 332.19 220.04 332.78C219.742 333.37 219.32 333.829 218.773 334.157C218.226 334.485 217.58 334.649 216.834 334.649ZM216.844 333.207C217.248 333.207 217.586 333.096 217.858 332.874C218.13 332.649 218.332 332.347 218.464 331.969C218.6 331.592 218.668 331.171 218.668 330.707C218.668 330.239 218.6 329.817 218.464 329.439C218.332 329.058 218.13 328.754 217.858 328.529C217.586 328.304 217.248 328.191 216.844 328.191C216.429 328.191 216.085 328.304 215.81 328.529C215.538 328.754 215.334 329.058 215.198 329.439C215.066 329.817 214.999 330.239 214.999 330.707C214.999 331.171 215.066 331.592 215.198 331.969C215.334 332.347 215.538 332.649 215.81 332.874C216.085 333.096 216.429 333.207 216.844 333.207ZM225.351 334.649C224.606 334.649 223.959 334.485 223.412 334.157C222.866 333.829 222.441 333.37 222.14 332.78C221.841 332.19 221.692 331.5 221.692 330.712C221.692 329.923 221.841 329.232 222.14 328.638C222.441 328.045 222.866 327.585 223.412 327.256C223.959 326.928 224.606 326.764 225.351 326.764C226.097 326.764 226.743 326.928 227.29 327.256C227.837 327.585 228.26 328.045 228.558 328.638C228.86 329.232 229.01 329.923 229.01 330.712C229.01 331.5 228.86 332.19 228.558 332.78C228.26 333.37 227.837 333.829 227.29 334.157C226.743 334.485 226.097 334.649 225.351 334.649ZM225.361 333.207C225.766 333.207 226.104 333.096 226.376 332.874C226.647 332.649 226.849 332.347 226.982 331.969C227.118 331.592 227.186 331.171 227.186 330.707C227.186 330.239 227.118 329.817 226.982 329.439C226.849 329.058 226.647 328.754 226.376 328.529C226.104 328.304 225.766 328.191 225.361 328.191C224.947 328.191 224.602 328.304 224.327 328.529C224.055 328.754 223.852 329.058 223.716 329.439C223.583 329.817 223.517 330.239 223.517 330.707C223.517 331.171 223.583 331.592 223.716 331.969C223.852 332.347 224.055 332.649 224.327 332.874C224.602 333.096 224.947 333.207 225.361 333.207ZM236.574 328.882L234.933 329.061C234.886 328.895 234.805 328.74 234.689 328.594C234.577 328.448 234.424 328.33 234.232 328.241C234.04 328.151 233.804 328.107 233.526 328.107C233.151 328.107 232.837 328.188 232.581 328.35C232.329 328.513 232.205 328.723 232.208 328.982C232.205 329.204 232.286 329.384 232.452 329.523C232.621 329.663 232.9 329.777 233.287 329.866L234.59 330.145C235.312 330.301 235.849 330.548 236.201 330.886C236.555 331.224 236.734 331.666 236.738 332.213C236.734 332.694 236.593 333.118 236.315 333.486C236.04 333.85 235.657 334.135 235.167 334.341C234.676 334.546 234.113 334.649 233.476 334.649C232.542 334.649 231.789 334.454 231.219 334.062C230.649 333.668 230.309 333.12 230.2 332.417L231.955 332.248C232.034 332.593 232.203 332.853 232.462 333.028C232.721 333.204 233.057 333.292 233.471 333.292C233.899 333.292 234.242 333.204 234.5 333.028C234.762 332.853 234.893 332.636 234.893 332.377C234.893 332.158 234.809 331.978 234.64 331.835C234.474 331.693 234.215 331.583 233.864 331.507L232.561 331.234C231.829 331.081 231.287 330.824 230.936 330.463C230.584 330.098 230.41 329.638 230.414 329.081C230.41 328.61 230.538 328.203 230.797 327.858C231.058 327.51 231.421 327.241 231.885 327.053C232.353 326.86 232.891 326.764 233.501 326.764C234.396 326.764 235.1 326.955 235.614 327.336C236.131 327.717 236.451 328.232 236.574 328.882ZM242.035 326.864V328.256H237.645V326.864H242.035ZM238.729 325.034H240.528V332.203C240.528 332.445 240.565 332.631 240.638 332.76C240.714 332.886 240.813 332.972 240.936 333.018C241.059 333.065 241.195 333.088 241.344 333.088C241.456 333.088 241.559 333.08 241.652 333.063C241.748 333.047 241.821 333.032 241.871 333.018L242.174 334.425C242.078 334.459 241.94 334.495 241.761 334.535C241.586 334.575 241.37 334.598 241.115 334.604C240.664 334.618 240.258 334.55 239.897 334.401C239.536 334.248 239.249 334.013 239.037 333.695C238.828 333.376 238.725 332.979 238.729 332.501V325.034ZM250.647 334.639C249.931 334.639 249.295 334.517 248.738 334.271C248.184 334.026 247.747 333.685 247.425 333.247C247.104 332.81 246.933 332.304 246.913 331.731H248.782C248.799 332.006 248.89 332.246 249.056 332.452C249.222 332.654 249.442 332.811 249.717 332.924C249.992 333.037 250.3 333.093 250.642 333.093C251.006 333.093 251.33 333.03 251.611 332.904C251.893 332.775 252.113 332.596 252.273 332.367C252.432 332.138 252.51 331.875 252.506 331.577C252.51 331.268 252.43 330.997 252.268 330.761C252.105 330.526 251.87 330.342 251.562 330.21C251.257 330.077 250.889 330.011 250.458 330.011H249.558V328.589H250.458C250.813 328.589 251.122 328.527 251.388 328.405C251.656 328.282 251.867 328.11 252.019 327.888C252.171 327.662 252.246 327.402 252.243 327.107C252.246 326.819 252.181 326.569 252.049 326.357C251.92 326.141 251.736 325.974 251.497 325.854C251.262 325.735 250.985 325.675 250.667 325.675C250.355 325.675 250.067 325.732 249.802 325.844C249.537 325.957 249.323 326.118 249.16 326.327C248.998 326.532 248.912 326.777 248.902 327.062H247.127C247.14 326.492 247.304 325.992 247.619 325.561C247.937 325.127 248.362 324.789 248.892 324.547C249.422 324.302 250.017 324.179 250.677 324.179C251.356 324.179 251.946 324.307 252.447 324.562C252.95 324.814 253.34 325.153 253.615 325.581C253.89 326.009 254.028 326.481 254.028 326.998C254.031 327.571 253.862 328.052 253.52 328.44C253.182 328.827 252.738 329.081 252.188 329.2V329.28C252.904 329.379 253.452 329.644 253.834 330.075C254.218 330.503 254.409 331.035 254.405 331.671C254.405 332.241 254.243 332.752 253.918 333.202C253.597 333.65 253.153 334.001 252.586 334.256C252.022 334.512 251.376 334.639 250.647 334.639ZM259.841 334.639C259.353 334.636 258.878 334.551 258.414 334.386C257.95 334.217 257.532 333.943 257.161 333.565C256.79 333.184 256.495 332.679 256.276 332.049C256.057 331.416 255.949 330.632 255.953 329.697C255.953 328.826 256.046 328.049 256.231 327.366C256.417 326.683 256.684 326.106 257.032 325.636C257.38 325.162 257.799 324.8 258.289 324.552C258.783 324.303 259.335 324.179 259.945 324.179C260.585 324.179 261.151 324.305 261.645 324.557C262.142 324.809 262.543 325.153 262.848 325.591C263.153 326.025 263.342 326.516 263.415 327.062H261.6C261.508 326.671 261.317 326.36 261.029 326.128C260.744 325.893 260.382 325.775 259.945 325.775C259.239 325.775 258.695 326.081 258.314 326.695C257.936 327.308 257.746 328.15 257.743 329.22H257.812C257.975 328.929 258.185 328.678 258.444 328.469C258.702 328.261 258.994 328.1 259.319 327.987C259.647 327.871 259.993 327.813 260.358 327.813C260.954 327.813 261.489 327.956 261.963 328.241C262.441 328.526 262.819 328.919 263.097 329.419C263.375 329.916 263.513 330.486 263.51 331.129C263.513 331.799 263.36 332.4 263.052 332.934C262.744 333.464 262.315 333.882 261.765 334.187C261.214 334.492 260.573 334.643 259.841 334.639ZM259.831 333.148C260.192 333.148 260.515 333.06 260.8 332.884C261.085 332.709 261.31 332.472 261.476 332.173C261.642 331.875 261.723 331.54 261.72 331.169C261.723 330.804 261.644 330.475 261.481 330.18C261.322 329.885 261.102 329.651 260.82 329.479C260.538 329.306 260.217 329.22 259.855 329.22C259.587 329.22 259.337 329.272 259.105 329.374C258.873 329.477 258.671 329.62 258.498 329.802C258.326 329.981 258.19 330.19 258.091 330.428C257.994 330.664 257.945 330.915 257.941 331.184C257.945 331.539 258.028 331.865 258.19 332.163C258.352 332.462 258.576 332.7 258.861 332.879C259.146 333.058 259.469 333.148 259.831 333.148ZM268.953 334.694C268.135 334.694 267.432 334.487 266.846 334.072C266.262 333.655 265.813 333.053 265.498 332.268C265.187 331.479 265.031 330.529 265.031 329.419C265.034 328.309 265.192 327.364 265.503 326.585C265.818 325.803 266.267 325.206 266.85 324.795C267.437 324.384 268.138 324.179 268.953 324.179C269.769 324.179 270.47 324.384 271.056 324.795C271.643 325.206 272.092 325.803 272.404 326.585C272.719 327.367 272.876 328.312 272.876 329.419C272.876 330.533 272.719 331.484 272.404 332.273C272.092 333.058 271.643 333.658 271.056 334.072C270.473 334.487 269.772 334.694 268.953 334.694ZM268.953 333.138C269.59 333.138 270.092 332.825 270.46 332.198C270.831 331.568 271.017 330.642 271.017 329.419C271.017 328.61 270.932 327.931 270.763 327.381C270.594 326.83 270.355 326.416 270.047 326.138C269.739 325.856 269.374 325.715 268.953 325.715C268.32 325.715 267.82 326.03 267.452 326.66C267.084 327.286 266.899 328.206 266.895 329.419C266.892 330.231 266.973 330.914 267.139 331.467C267.308 332.021 267.547 332.438 267.855 332.72C268.163 332.999 268.529 333.138 268.953 333.138Z" fill="black"/>
<rect x="262" y="59" width="104" height="41" rx="10" fill="white"/>
<mask id="path-54-inside-4_750_9476" fill="white">
<path d="M292 90H272C271.59 90 271.25 89.66 271.25 89.25C271.25 88.84 271.59 88.5 272 88.5H292C292.41 88.5 292.75 88.84 292.75 89.25C292.75 89.66 292.41 90 292 90Z"/>
</mask>
<path d="M292 90H272C271.59 90 271.25 89.66 271.25 89.25C271.25 88.84 271.59 88.5 272 88.5H292C292.41 88.5 292.75 88.84 292.75 89.25C292.75 89.66 292.41 90 292 90Z" fill="#E6F6F6"/>
<path d="M292 88.5H272V91.5H292V88.5ZM272 88.5C272.418 88.5 272.75 88.8316 272.75 89.25H269.75C269.75 90.4884 270.762 91.5 272 91.5V88.5ZM272.75 89.25C272.75 89.6684 272.418 90 272 90V87C270.762 87 269.75 88.0116 269.75 89.25H272.75ZM272 90H292V87H272V90ZM292 90C291.582 90 291.25 89.6684 291.25 89.25H294.25C294.25 88.0116 293.238 87 292 87V90ZM291.25 89.25C291.25 88.8316 291.582 88.5 292 88.5V91.5C293.238 91.5 294.25 90.4884 294.25 89.25H291.25Z" fill="#00A3A3" mask="url(#path-54-inside-4_750_9476)"/>
<path d="M283.5 89.25H280.5V72C280.5 71.5335 280.598 71.225 280.736 71.0472C280.848 70.9039 281.057 70.75 281.55 70.75H282.45C282.943 70.75 283.152 70.9039 283.264 71.0472C283.402 71.225 283.5 71.5335 283.5 72V89.25Z" fill="#E6F6F6" stroke="#00A3A3" stroke-width="1.5"/>
<path opacity="0.4" d="M276.25 89.25H273.75V78C273.75 77.5196 273.841 77.1965 273.967 77.0133C274.061 76.8773 274.217 76.75 274.6 76.75H275.4C275.783 76.75 275.939 76.8773 276.033 77.0133C276.159 77.1965 276.25 77.5196 276.25 78V89.25Z" fill="#E6F6F6" stroke="#00A3A3" stroke-width="1.5"/>
<path opacity="0.4" d="M290.25 89.25H287.75V83C287.75 82.5196 287.841 82.1965 287.967 82.0133C288.061 81.8773 288.217 81.75 288.6 81.75H289.4C289.783 81.75 289.939 81.8773 290.033 82.0133C290.159 82.1965 290.25 82.5196 290.25 83V89.25Z" fill="#E6F6F6" stroke="#00A3A3" stroke-width="1.5"/>
<path d="M302.209 78.5696C302.126 78.3011 302.012 78.0608 301.866 77.8487C301.724 77.6333 301.551 77.4493 301.349 77.2969C301.15 77.1444 300.921 77.0301 300.663 76.9538C300.404 76.8743 300.123 76.8345 299.818 76.8345C299.271 76.8345 298.784 76.9721 298.356 77.2472C297.929 77.5223 297.592 77.9266 297.347 78.4602C297.105 78.9905 296.984 79.6368 296.984 80.3991C296.984 81.1681 297.105 81.8194 297.347 82.353C297.589 82.8866 297.925 83.2926 298.356 83.571C298.787 83.8461 299.287 83.9837 299.858 83.9837C300.375 83.9837 300.822 83.8842 301.2 83.6854C301.581 83.4865 301.874 83.2048 302.08 82.8402C302.285 82.4723 302.388 82.0414 302.388 81.5476L302.806 81.6122H300.041V80.1705H304.173V81.3935C304.173 82.2652 303.987 83.0192 303.616 83.6555C303.245 84.2919 302.734 84.7824 302.085 85.1271C301.435 85.4685 300.689 85.6392 299.848 85.6392C298.91 85.6392 298.086 85.4287 297.377 85.0078C296.671 84.5836 296.119 83.982 295.721 83.2031C295.327 82.4209 295.13 81.4929 295.13 80.419C295.13 79.5971 295.246 78.8629 295.478 78.2166C295.713 77.5703 296.041 77.0218 296.462 76.571C296.883 76.117 297.377 75.7723 297.943 75.5369C298.51 75.2983 299.127 75.179 299.793 75.179C300.356 75.179 300.882 75.2618 301.369 75.4276C301.856 75.59 302.289 75.822 302.666 76.1236C303.048 76.4252 303.361 76.7831 303.606 77.1974C303.851 77.6117 304.012 78.0691 304.088 78.5696H302.209ZM305.877 85.5V77.8636H307.622V79.1364H307.701C307.841 78.6955 308.079 78.3558 308.417 78.1172C308.759 77.8752 309.148 77.7543 309.586 77.7543C309.685 77.7543 309.796 77.7592 309.919 77.7692C310.045 77.7758 310.149 77.7874 310.232 77.804V79.4595C310.156 79.433 310.035 79.4098 309.869 79.3899C309.707 79.3667 309.549 79.3551 309.397 79.3551C309.069 79.3551 308.774 79.4264 308.512 79.5689C308.253 79.7081 308.049 79.902 307.9 80.1506C307.751 80.3991 307.677 80.6858 307.677 81.0107V85.5H305.877ZM314.444 85.6491C313.698 85.6491 313.052 85.4851 312.505 85.157C311.958 84.8288 311.534 84.3698 311.233 83.7798C310.934 83.1899 310.785 82.5005 310.785 81.7116C310.785 80.9228 310.934 80.2318 311.233 79.6385C311.534 79.0452 311.958 78.5845 312.505 78.2564C313.052 77.9283 313.698 77.7642 314.444 77.7642C315.19 77.7642 315.836 77.9283 316.383 78.2564C316.93 78.5845 317.353 79.0452 317.651 79.6385C317.952 80.2318 318.103 80.9228 318.103 81.7116C318.103 82.5005 317.952 83.1899 317.651 83.7798C317.353 84.3698 316.93 84.8288 316.383 85.157C315.836 85.4851 315.19 85.6491 314.444 85.6491ZM314.454 84.2074C314.858 84.2074 315.197 84.0964 315.468 83.8743C315.74 83.6489 315.942 83.3473 316.075 82.9695C316.211 82.5916 316.279 82.1707 316.279 81.7067C316.279 81.2393 316.211 80.8168 316.075 80.4389C315.942 80.0578 315.74 79.7545 315.468 79.5291C315.197 79.3037 314.858 79.1911 314.454 79.1911C314.04 79.1911 313.695 79.3037 313.42 79.5291C313.148 79.7545 312.944 80.0578 312.809 80.4389C312.676 80.8168 312.61 81.2393 312.61 81.7067C312.61 82.1707 312.676 82.5916 312.809 82.9695C312.944 83.3473 313.148 83.6489 313.42 83.8743C313.695 84.0964 314.04 84.2074 314.454 84.2074ZM320.988 85.5L318.83 77.8636H320.665L322.007 83.233H322.077L323.449 77.8636H325.264L326.636 83.2031H326.71L328.033 77.8636H329.872L327.71 85.5H325.835L324.403 80.3395H324.299L322.867 85.5H320.988ZM338.723 75.3182V85.5H336.878V77.1129H336.819L334.437 78.6342V76.9439L336.968 75.3182H338.723ZM345.072 85.6939C344.253 85.6939 343.55 85.4867 342.964 85.0724C342.38 84.6548 341.931 84.0533 341.616 83.2678C341.305 82.4789 341.149 81.5294 341.149 80.419C341.152 79.3087 341.31 78.3641 341.621 77.5852C341.936 76.803 342.385 76.2064 342.969 75.7955C343.555 75.3845 344.256 75.179 345.072 75.179C345.887 75.179 346.588 75.3845 347.175 75.7955C347.761 76.2064 348.21 76.803 348.522 77.5852C348.837 78.3674 348.994 79.312 348.994 80.419C348.994 81.5327 348.837 82.4839 348.522 83.2727C348.21 84.0582 347.761 84.6581 347.175 85.0724C346.591 85.4867 345.89 85.6939 345.072 85.6939ZM345.072 84.1378C345.708 84.1378 346.21 83.8246 346.578 83.1982C346.949 82.5684 347.135 81.642 347.135 80.419C347.135 79.6103 347.05 78.9309 346.881 78.3807C346.712 77.8305 346.474 77.4162 346.165 77.1378C345.857 76.8561 345.493 76.7152 345.072 76.7152C344.439 76.7152 343.938 77.0301 343.57 77.6598C343.202 78.2862 343.017 79.206 343.013 80.419C343.01 81.2311 343.091 81.9138 343.257 82.4673C343.426 83.0208 343.665 83.4384 343.973 83.7202C344.281 83.9986 344.647 84.1378 345.072 84.1378ZM352.138 77.8636L353.679 80.6825L355.245 77.8636H357.149L354.847 81.6818L357.189 85.5H355.294L353.679 82.7507L352.078 85.5H350.169L352.495 81.6818L350.228 77.8636H352.138Z" fill="black"/>
<circle cx="237.396" cy="194.396" r="89.8955" fill="#E6F6F6" stroke="#E6F6F6" stroke-width="3"/>
<circle cx="236.5" cy="195.5" r="65" fill="#00A3A3" stroke="#E6F6F6" stroke-width="3"/>
</svg>
