<svg width="12" height="52" viewBox="0 0 12 52" fill="none" xmlns="http://www.w3.org/2000/svg">
<path d="M6.85825 51.1834C6.57356 51.4681 6.11199 51.4681 5.82729 51.1834L1.18798 46.5441C0.903293 46.2594 0.903293 45.7979 1.18798 45.5132C1.47268 45.2285 1.93425 45.2285 2.21894 45.5132L6.34277 49.637L10.4666 45.5132C10.7513 45.2285 11.2129 45.2285 11.4976 45.5132C11.7823 45.7979 11.7823 46.2594 11.4976 46.5441L6.85825 51.1834ZM7.07177 2.05686V2.78585H5.61378V2.05686H7.07177ZM5.61378 4.83464V4.10564H7.07177V4.83464H5.61378ZM7.07177 7.61241L7.07177 8.34141H5.61378L5.61378 7.61241H7.07177ZM5.61378 10.3902V9.66119H7.07177V10.3902H5.61378ZM7.07177 13.168V13.897H5.61378V13.168H7.07177ZM5.61378 15.9457V15.2167H7.07177V15.9457H5.61378ZM7.07177 18.7235V19.4525H5.61378V18.7235H7.07177ZM5.61378 21.5013V20.7723H7.07177V21.5013H5.61378ZM7.07177 24.2791V25.0081H5.61378V24.2791H7.07177ZM5.61378 27.0569L5.61378 26.3279H7.07177L7.07177 27.0569H5.61378ZM7.07177 29.8346V30.5636H5.61378V29.8346H7.07177ZM5.61378 32.6124L5.61378 31.8834H7.07177L7.07177 32.6124H5.61378ZM7.07177 35.3902V36.1192H5.61378V35.3902H7.07177ZM5.61378 38.168V37.439H7.07177V38.168H5.61378ZM7.07177 40.9458V41.6747H5.61378V40.9458H7.07177ZM5.61378 43.7235V42.9945H7.07177V43.7235H5.61378ZM7.07177 46.5013V47.2303H5.61378V46.5013H7.07177ZM5.61378 49.2791V48.5501H7.07177V49.2791H5.61378ZM7.07177 0.667969V2.05686H5.61378V0.667969L7.07177 0.667969ZM7.07177 4.83464V7.61241H5.61378V4.83464H7.07177ZM7.07177 10.3902L7.07177 13.168H5.61378L5.61378 10.3902H7.07177ZM7.07177 15.9457L7.07177 18.7235H5.61378L5.61378 15.9457H7.07177ZM7.07177 21.5013L7.07177 24.2791H5.61378L5.61378 21.5013H7.07177ZM7.07177 27.0569V29.8346H5.61378V27.0569H7.07177ZM7.07177 32.6124V35.3902H5.61378V32.6124H7.07177ZM7.07177 38.168V40.9458H5.61378V38.168H7.07177ZM7.07177 43.7235L7.07177 46.5013H5.61378L5.61378 43.7235H7.07177ZM7.07177 49.2791V50.668H5.61378V49.2791H7.07177ZM6.85825 51.1834C6.57356 51.4681 6.11199 51.4681 5.82729 51.1834L1.18798 46.5441C0.903293 46.2594 0.903293 45.7979 1.18798 45.5132C1.47268 45.2285 1.93425 45.2285 2.21894 45.5132L6.34277 49.637L10.4666 45.5132C10.7513 45.2285 11.2129 45.2285 11.4976 45.5132C11.7823 45.7979 11.7823 46.2594 11.4976 46.5441L6.85825 51.1834ZM7.07177 2.05686V2.78585H5.61378V2.05686H7.07177ZM5.61378 4.83464V4.10564H7.07177V4.83464H5.61378ZM7.07177 7.61241L7.07177 8.34141H5.61378L5.61378 7.61241H7.07177ZM5.61378 10.3902V9.66119H7.07177V10.3902H5.61378ZM7.07177 13.168V13.897H5.61378V13.168H7.07177ZM5.61378 15.9457V15.2167H7.07177V15.9457H5.61378ZM7.07177 18.7235V19.4525H5.61378V18.7235H7.07177ZM5.61378 21.5013V20.7723H7.07177V21.5013H5.61378ZM7.07177 24.2791V25.0081H5.61378V24.2791H7.07177ZM5.61378 27.0569L5.61378 26.3279H7.07177L7.07177 27.0569H5.61378ZM7.07177 29.8346V30.5636H5.61378V29.8346H7.07177ZM5.61378 32.6124L5.61378 31.8834H7.07177L7.07177 32.6124H5.61378ZM7.07177 35.3902V36.1192H5.61378V35.3902H7.07177ZM5.61378 38.168V37.439H7.07177V38.168H5.61378ZM7.07177 40.9458V41.6747H5.61378V40.9458H7.07177ZM5.61378 43.7235V42.9945H7.07177V43.7235H5.61378ZM7.07177 46.5013V47.2303H5.61378V46.5013H7.07177ZM5.61378 49.2791V48.5501H7.07177V49.2791H5.61378ZM7.07177 0.667969V2.05686H5.61378V0.667969L7.07177 0.667969ZM7.07177 4.83464V7.61241H5.61378V4.83464H7.07177ZM7.07177 10.3902L7.07177 13.168H5.61378L5.61378 10.3902H7.07177ZM7.07177 15.9457L7.07177 18.7235H5.61378L5.61378 15.9457H7.07177ZM7.07177 21.5013L7.07177 24.2791H5.61378L5.61378 21.5013H7.07177ZM7.07177 27.0569V29.8346H5.61378V27.0569H7.07177ZM7.07177 32.6124V35.3902H5.61378V32.6124H7.07177ZM7.07177 38.168V40.9458H5.61378V38.168H7.07177ZM7.07177 43.7235L7.07177 46.5013H5.61378L5.61378 43.7235H7.07177ZM7.07177 49.2791V50.668H5.61378V49.2791H7.07177Z" fill="white"/>
</svg>
