<svg width="125" height="16" viewBox="0 0 125 16" fill="none" xmlns="http://www.w3.org/2000/svg">
<path d="M124.707 8.70711C125.098 8.31658 125.098 7.68342 124.707 7.29289L118.343 0.928932C117.953 0.538408 117.319 0.538408 116.929 0.928932C116.538 1.31946 116.538 1.95262 116.929 2.34315L122.586 8L116.929 13.6569C116.538 14.0474 116.538 14.6805 116.929 15.0711C117.319 15.4616 117.953 15.4616 118.343 15.0711L124.707 8.70711ZM1.9375 9H2.9375V7H1.9375V9ZM5.8125 7H4.8125V9H5.8125V7ZM9.6875 9H10.6875V7H9.6875V9ZM13.5625 7H12.5625V9H13.5625V7ZM17.4375 9H18.4375V7H17.4375V9ZM21.3125 7H20.3125V9H21.3125V7ZM25.1875 9H26.1875V7H25.1875V9ZM29.0625 7H28.0625V9H29.0625V7ZM32.9375 9H33.9375V7H32.9375V9ZM36.8125 7H35.8125V9H36.8125V7ZM40.6875 9H41.6875V7H40.6875V9ZM44.5625 7H43.5625V9H44.5625V7ZM48.4375 9H49.4375V7H48.4375V9ZM52.3125 7H51.3125V9H52.3125V7ZM56.1875 9H57.1875V7H56.1875V9ZM60.0625 7H59.0625V9H60.0625V7ZM63.9375 9H64.9375V7H63.9375V9ZM67.8125 7H66.8125V9H67.8125V7ZM71.6875 9H72.6875V7H71.6875V9ZM75.5625 7H74.5625V9H75.5625V7ZM79.4375 9H80.4375V7H79.4375V9ZM83.3125 7H82.3125V9H83.3125V7ZM87.1875 9H88.1875V7H87.1875V9ZM91.0625 7H90.0625V9H91.0625V7ZM94.9375 9H95.9375V7H94.9375V9ZM98.8125 7H97.8125V9H98.8125V7ZM102.688 9H103.688V7H102.688V9ZM106.562 7H105.562V9H106.562V7ZM110.438 9H111.438V7H110.438V9ZM114.312 7H113.312V9H114.312V7ZM118.188 9H119.188V7H118.188V9ZM122.062 7H121.062V9H122.062V7ZM0 9H1.9375V7H0V9ZM5.8125 9H9.6875V7H5.8125V9ZM13.5625 9H17.4375V7H13.5625V9ZM21.3125 9H25.1875V7H21.3125V9ZM29.0625 9H32.9375V7H29.0625V9ZM36.8125 9H40.6875V7H36.8125V9ZM44.5625 9H48.4375V7H44.5625V9ZM52.3125 9H56.1875V7H52.3125V9ZM60.0625 9H63.9375V7H60.0625V9ZM67.8125 9H71.6875V7H67.8125V9ZM75.5625 9H79.4375V7H75.5625V9ZM83.3125 9H87.1875V7H83.3125V9ZM91.0625 9H94.9375V7H91.0625V9ZM98.8125 9H102.688V7H98.8125V9ZM106.562 9H110.438V7H106.562V9ZM114.312 9H118.188V7H114.312V9ZM122.062 9H124V7H122.062V9ZM124.707 8.70711C125.098 8.31658 125.098 7.68342 124.707 7.29289L118.343 0.928932C117.953 0.538408 117.319 0.538408 116.929 0.928932C116.538 1.31946 116.538 1.95262 116.929 2.34315L122.586 8L116.929 13.6569C116.538 14.0474 116.538 14.6805 116.929 15.0711C117.319 15.4616 117.953 15.4616 118.343 15.0711L124.707 8.70711ZM1.9375 9H2.9375V7H1.9375V9ZM5.8125 7H4.8125V9H5.8125V7ZM9.6875 9H10.6875V7H9.6875V9ZM13.5625 7H12.5625V9H13.5625V7ZM17.4375 9H18.4375V7H17.4375V9ZM21.3125 7H20.3125V9H21.3125V7ZM25.1875 9H26.1875V7H25.1875V9ZM29.0625 7H28.0625V9H29.0625V7ZM32.9375 9H33.9375V7H32.9375V9ZM36.8125 7H35.8125V9H36.8125V7ZM40.6875 9H41.6875V7H40.6875V9ZM44.5625 7H43.5625V9H44.5625V7ZM48.4375 9H49.4375V7H48.4375V9ZM52.3125 7H51.3125V9H52.3125V7ZM56.1875 9H57.1875V7H56.1875V9ZM60.0625 7H59.0625V9H60.0625V7ZM63.9375 9H64.9375V7H63.9375V9ZM67.8125 7H66.8125V9H67.8125V7ZM71.6875 9H72.6875V7H71.6875V9ZM75.5625 7H74.5625V9H75.5625V7ZM79.4375 9H80.4375V7H79.4375V9ZM83.3125 7H82.3125V9H83.3125V7ZM87.1875 9H88.1875V7H87.1875V9ZM91.0625 7H90.0625V9H91.0625V7ZM94.9375 9H95.9375V7H94.9375V9ZM98.8125 7H97.8125V9H98.8125V7ZM102.688 9H103.688V7H102.688V9ZM106.562 7H105.562V9H106.562V7ZM110.438 9H111.438V7H110.438V9ZM114.312 7H113.312V9H114.312V7ZM118.188 9H119.188V7H118.188V9ZM122.062 7H121.062V9H122.062V7ZM0 9H1.9375V7H0V9ZM5.8125 9H9.6875V7H5.8125V9ZM13.5625 9H17.4375V7H13.5625V9ZM21.3125 9H25.1875V7H21.3125V9ZM29.0625 9H32.9375V7H29.0625V9ZM36.8125 9H40.6875V7H36.8125V9ZM44.5625 9H48.4375V7H44.5625V9ZM52.3125 9H56.1875V7H52.3125V9ZM60.0625 9H63.9375V7H60.0625V9ZM67.8125 9H71.6875V7H67.8125V9ZM75.5625 9H79.4375V7H75.5625V9ZM83.3125 9H87.1875V7H83.3125V9ZM91.0625 9H94.9375V7H91.0625V9ZM98.8125 9H102.688V7H98.8125V9ZM106.562 9H110.438V7H106.562V9ZM114.312 9H118.188V7H114.312V9ZM122.062 9H124V7H122.062V9Z" fill="white"/>
</svg>
