<svg width="24" height="24" viewBox="0 0 24 24" fill="none" xmlns="http://www.w3.org/2000/svg">
<g opacity="0.6">
<path opacity="0.6" d="M17.4004 9C17.4004 9.13807 17.2885 9.25 17.1504 9.25C17.0123 9.25 16.9004 9.13807 16.9004 9C16.9004 8.86193 17.0123 8.75 17.1504 8.75C17.2885 8.75 17.4004 8.86193 17.4004 9Z" fill="#00A3A3" stroke="#B0E2E2" stroke-width="1.5"/>
<path opacity="0.6" d="M17.4004 15C17.4004 15.1381 17.2885 15.25 17.1504 15.25C17.0123 15.25 16.9004 15.1381 16.9004 15C16.9004 14.8619 17.0123 14.75 17.1504 14.75C17.2885 14.75 17.4004 14.8619 17.4004 15Z" fill="#00A3A3" stroke="#B0E2E2" stroke-width="1.5"/>
<path opacity="0.6" d="M20 12C20 12.1381 19.8881 12.25 19.75 12.25C19.6119 12.25 19.5 12.1381 19.5 12C19.5 11.8619 19.6119 11.75 19.75 11.75C19.8881 11.75 20 11.8619 20 12Z" fill="#00A3A3" stroke="#B0E2E2" stroke-width="1.5"/>
<path opacity="0.6" d="M7.0498 9C7.0498 9.13807 6.93788 9.25 6.7998 9.25C6.66173 9.25 6.5498 9.13807 6.5498 9C6.5498 8.86193 6.66173 8.75 6.7998 8.75C6.93788 8.75 7.0498 8.86193 7.0498 9Z" fill="#00A3A3" stroke="#B0E2E2" stroke-width="1.5"/>
<path opacity="0.6" d="M7.0498 15C7.0498 15.1381 6.93788 15.25 6.7998 15.25C6.66173 15.25 6.5498 15.1381 6.5498 15C6.5498 14.8619 6.66173 14.75 6.7998 14.75C6.93788 14.75 7.0498 14.8619 7.0498 15Z" fill="#00A3A3" stroke="#B0E2E2" stroke-width="1.5"/>
<path opacity="0.6" d="M4.4502 12C4.4502 12.1381 4.33827 12.25 4.2002 12.25C4.06212 12.25 3.9502 12.1381 3.9502 12C3.9502 11.8619 4.06212 11.75 4.2002 11.75C4.33827 11.75 4.4502 11.8619 4.4502 12Z" fill="#00A3A3" stroke="#B0E2E2" stroke-width="1.5"/>
<path opacity="0.6" d="M16.1504 5.19995C16.1504 5.33802 16.0385 5.44995 15.9004 5.44995C15.7623 5.44995 15.6504 5.33802 15.6504 5.19995C15.6504 5.06188 15.7623 4.94995 15.9004 4.94995C16.0385 4.94995 16.1504 5.06188 16.1504 5.19995Z" fill="#00A3A3" stroke="#B0E2E2" stroke-width="1.5"/>
<path opacity="0.6" d="M8.35059 5.19995C8.35059 5.33802 8.23866 5.44995 8.10059 5.44995C7.96251 5.44995 7.85059 5.33802 7.85059 5.19995C7.85059 5.06188 7.96251 4.94995 8.10059 4.94995C8.23866 4.94995 8.35059 5.06188 8.35059 5.19995Z" fill="#00A3A3" stroke="#B0E2E2" stroke-width="1.5"/>
<path opacity="0.6" d="M12.2998 6C12.2998 6.13807 12.1879 6.25 12.0498 6.25C11.9117 6.25 11.7998 6.13807 11.7998 6C11.7998 5.86193 11.9117 5.75 12.0498 5.75C12.1879 5.75 12.2998 5.86193 12.2998 6Z" fill="#00A3A3" stroke="#B0E2E2" stroke-width="1.5"/>
<path opacity="0.6" d="M16.1504 19C16.1504 19.1381 16.0385 19.25 15.9004 19.25C15.7623 19.25 15.6504 19.1381 15.6504 19C15.6504 18.8619 15.7623 18.75 15.9004 18.75C16.0385 18.75 16.1504 18.8619 16.1504 19Z" fill="#00A3A3" stroke="#B0E2E2" stroke-width="1.5"/>
<path opacity="0.6" d="M8.35059 19C8.35059 19.1381 8.23866 19.25 8.10059 19.25C7.96251 19.25 7.85059 19.1381 7.85059 19C7.85059 18.8619 7.96251 18.75 8.10059 18.75C8.23866 18.75 8.35059 18.8619 8.35059 19Z" fill="#00A3A3" stroke="#B0E2E2" stroke-width="1.5"/>
<path opacity="0.6" d="M12.2998 18.2C12.2998 18.338 12.1879 18.45 12.0498 18.45C11.9117 18.45 11.7998 18.338 11.7998 18.2C11.7998 18.0619 11.9117 17.95 12.0498 17.95C12.1879 17.95 12.2998 18.0619 12.2998 18.2Z" fill="#00A3A3" stroke="#B0E2E2" stroke-width="1.5"/>
</g>
<path d="M14.25 9C14.25 9.27614 14.0261 9.5 13.75 9.5C13.4739 9.5 13.25 9.27614 13.25 9C13.25 8.72386 13.4739 8.5 13.75 8.5C14.0261 8.5 14.25 8.72386 14.25 9Z" fill="#00A3A3" stroke="#B0E2E2" stroke-width="1.5"/>
<path d="M10.75 9C10.75 9.27614 10.5261 9.5 10.25 9.5C9.97386 9.5 9.75 9.27614 9.75 9C9.75 8.72386 9.97386 8.5 10.25 8.5C10.5261 8.5 10.75 8.72386 10.75 9Z" fill="#00A3A3" stroke="#B0E2E2" stroke-width="1.5"/>
<path d="M16 12C16 12.2761 15.7761 12.5 15.5 12.5C15.2239 12.5 15 12.2761 15 12C15 11.7239 15.2239 11.5 15.5 11.5C15.7761 11.5 16 11.7239 16 12Z" fill="#00A3A3" stroke="#B0E2E2" stroke-width="1.5"/>
<path d="M9 12C9 12.2761 8.77614 12.5 8.5 12.5C8.22386 12.5 8 12.2761 8 12C8 11.7239 8.22386 11.5 8.5 11.5C8.77614 11.5 9 11.7239 9 12Z" fill="#00A3A3" stroke="#B0E2E2" stroke-width="1.5"/>
<path d="M10.75 15C10.75 15.2761 10.5261 15.5 10.25 15.5C9.97386 15.5 9.75 15.2761 9.75 15C9.75 14.7239 9.97386 14.5 10.25 14.5C10.5261 14.5 10.75 14.7239 10.75 15Z" fill="#00A3A3" stroke="#B0E2E2" stroke-width="1.5"/>
<path d="M14.25 15C14.25 15.2761 14.0261 15.5 13.75 15.5C13.4739 15.5 13.25 15.2761 13.25 15C13.25 14.7239 13.4739 14.5 13.75 14.5C14.0261 14.5 14.25 14.7239 14.25 15Z" fill="#00A3A3" stroke="#B0E2E2" stroke-width="1.5"/>
<g opacity="0.4">
<path opacity="0.4" d="M12.0001 3.33008C11.5101 3.33008 11.1201 2.94008 11.1201 2.45008C11.1201 1.96008 11.5101 1.58008 12.0001 1.58008C12.4901 1.58008 12.8801 1.97008 12.8801 2.46008C12.8801 2.95008 12.4901 3.33008 12.0001 3.33008Z" fill="#00A3A3"/>
</g>
<g opacity="0.4">
<path opacity="0.4" d="M17.2502 3.6001C16.8302 3.6001 16.4902 3.2601 16.4902 2.8501C16.4902 2.4401 16.8302 2.1001 17.2402 2.1001C17.6502 2.1001 18.0002 2.4401 18.0002 2.8501C18.0002 3.2601 17.6702 3.6001 17.2502 3.6001Z" fill="#00A3A3"/>
</g>
<g opacity="0.4">
<path opacity="0.4" d="M6.75 3.6001C6.34 3.6001 6 3.2601 6 2.8501C6 2.4401 6.33 2.1001 6.75 2.1001H6.76C7.17 2.1001 7.51 2.4401 7.51 2.8501C7.51 3.2601 7.17 3.6001 6.75 3.6001Z" fill="#00A3A3"/>
</g>
<g opacity="0.4">
<path opacity="0.4" d="M12.0001 22.3801C11.5101 22.3801 11.1201 21.9901 11.1201 21.5001C11.1201 21.0101 11.5101 20.6201 12.0001 20.6201C12.4901 20.6201 12.8801 21.0101 12.8801 21.5001C12.8801 21.9901 12.4901 22.3801 12.0001 22.3801Z" fill="#00A3A3"/>
</g>
<g opacity="0.4">
<path opacity="0.4" d="M17.2502 21.8501C16.8302 21.8501 16.4902 21.5101 16.4902 21.1001C16.4902 20.6901 16.8302 20.3501 17.2402 20.3501C17.6502 20.3501 18.0002 20.6901 18.0002 21.1001C18.0002 21.5101 17.6702 21.8501 17.2502 21.8501Z" fill="#00A3A3"/>
</g>
<g opacity="0.4">
<path opacity="0.4" d="M6.75 21.8501C6.34 21.8501 6 21.5101 6 21.1001C6 20.6901 6.33 20.3501 6.75 20.3501H6.76C7.17 20.3501 7.51 20.6901 7.51 21.1001C7.51 21.5101 7.17 21.8501 6.75 21.8501Z" fill="#00A3A3"/>
</g>
<g opacity="0.4">
<path opacity="0.4" d="M1.54992 12.8801C1.06992 12.8801 0.669922 12.4901 0.669922 12.0101V12.0001C0.669922 11.5201 1.05992 11.1201 1.54992 11.1201C2.03992 11.1201 2.41992 11.5101 2.41992 12.0001C2.41992 12.4901 2.02992 12.8801 1.54992 12.8801Z" fill="#00A3A3"/>
</g>
<g opacity="0.4">
<path opacity="0.4" d="M3.75 17.75C3.34 17.75 3 17.41 3 17V16.99C3 16.58 3.34 16.24 3.75 16.24C4.16 16.24 4.5 16.58 4.5 16.99C4.5 17.4 4.16 17.75 3.75 17.75Z" fill="#00A3A3"/>
</g>
<g opacity="0.4">
<path opacity="0.4" d="M3.75 7.76001C3.34 7.76001 3 7.42001 3 7.01001C3 6.60001 3.34 6.26001 3.75 6.26001C4.16 6.26001 4.5 6.59001 4.5 7.00001V7.01001C4.5 7.42001 4.16 7.76001 3.75 7.76001Z" fill="#00A3A3"/>
</g>
<g opacity="0.4">
<path opacity="0.4" d="M22.5001 12.8801C22.0201 12.8801 21.6201 12.4901 21.6201 12.0101V12.0001C21.6201 11.5201 22.0101 11.1201 22.5001 11.1201C22.9901 11.1201 23.3801 11.5101 23.3801 12.0001C23.3801 12.4901 22.9801 12.8801 22.5001 12.8801Z" fill="#00A3A3"/>
</g>
<g opacity="0.4">
<path opacity="0.4" d="M20.2998 17.75C19.8898 17.75 19.5498 17.42 19.5498 17V16.99C19.5498 16.58 19.8898 16.24 20.2998 16.24C20.7098 16.24 21.0498 16.58 21.0498 16.99C21.0498 17.4 20.7098 17.75 20.2998 17.75Z" fill="#00A3A3"/>
</g>
<g opacity="0.4">
<path opacity="0.4" d="M20.2998 7.76001C19.8898 7.76001 19.5498 7.42001 19.5498 7.01001C19.5498 6.60001 19.8898 6.26001 20.2998 6.26001C20.7098 6.26001 21.0498 6.59001 21.0498 7.00001V7.01001C21.0498 7.42001 20.7098 7.76001 20.2998 7.76001Z" fill="#00A3A3"/>
</g>
</svg>
