<svg width="112" height="99" viewBox="0 0 112 99" fill="none" xmlns="http://www.w3.org/2000/svg">
<circle cx="98.3914" cy="22.8689" r="1.5" transform="rotate(55 98.3914 22.8689)" fill="#273859"/>
<circle cx="94.2957" cy="25.7366" r="1.5" transform="rotate(55 94.2957 25.7366)" fill="#273859"/>
<circle cx="90.2" cy="28.6047" r="1.5" transform="rotate(55 90.2 28.6047)" fill="#273859"/>
<circle cx="86.104" cy="31.4724" r="1.5" transform="rotate(55 86.104 31.4724)" fill="#273859"/>
<circle cx="82.0083" cy="34.3406" r="1.5" transform="rotate(55 82.0083 34.3406)" fill="#273859"/>
<circle cx="77.9126" cy="37.2082" r="1.5" transform="rotate(55 77.9126 37.2082)" fill="#273859"/>
<circle cx="73.8169" cy="40.0764" r="1.5" transform="rotate(55 73.8169 40.0764)" fill="#273859"/>
<circle cx="69.721" cy="42.9441" r="1.5" transform="rotate(55 69.721 42.9441)" fill="#273859"/>
<circle cx="65.6253" cy="45.8117" r="1.5" transform="rotate(55 65.6253 45.8117)" fill="#273859"/>
<circle cx="61.5296" cy="48.6799" r="1.5" transform="rotate(55 61.5296 48.6799)" fill="#273859"/>
<circle cx="57.4339" cy="51.5476" r="1.5" transform="rotate(55 57.4339 51.5476)" fill="#273859"/>
<circle cx="101.259" cy="26.9646" r="1.5" transform="rotate(55 101.259 26.9646)" fill="#273859"/>
<circle cx="97.1636" cy="29.8323" r="1.5" transform="rotate(55 97.1636 29.8323)" fill="#273859"/>
<circle cx="93.0679" cy="32.7004" r="1.5" transform="rotate(55 93.0679 32.7004)" fill="#273859"/>
<circle cx="88.972" cy="35.5681" r="1.5" transform="rotate(55 88.972 35.5681)" fill="#273859"/>
<circle cx="84.8763" cy="38.4363" r="1.5" transform="rotate(55 84.8763 38.4363)" fill="#273859"/>
<circle cx="80.7806" cy="41.3039" r="1.5" transform="rotate(55 80.7806 41.3039)" fill="#273859"/>
<circle cx="76.6849" cy="44.1721" r="1.5" transform="rotate(55 76.6849 44.1721)" fill="#273859"/>
<circle cx="72.5889" cy="47.0398" r="1.5" transform="rotate(55 72.5889 47.0398)" fill="#273859"/>
<circle cx="68.4932" cy="49.9075" r="1.5" transform="rotate(55 68.4932 49.9075)" fill="#273859"/>
<circle cx="64.3975" cy="52.7756" r="1.5" transform="rotate(55 64.3975 52.7756)" fill="#273859"/>
<circle cx="60.3018" cy="55.6433" r="1.5" transform="rotate(55 60.3018 55.6433)" fill="#273859"/>
<circle cx="104.127" cy="31.0603" r="1.5" transform="rotate(55 104.127 31.0603)" fill="#273859"/>
<circle cx="100.032" cy="33.928" r="1.5" transform="rotate(55 100.032 33.928)" fill="#273859"/>
<circle cx="95.9358" cy="36.7961" r="1.5" transform="rotate(55 95.9358 36.7961)" fill="#273859"/>
<circle cx="91.8399" cy="39.6638" r="1.5" transform="rotate(55 91.8399 39.6638)" fill="#273859"/>
<circle cx="87.7442" cy="42.532" r="1.5" transform="rotate(55 87.7442 42.532)" fill="#273859"/>
<circle cx="83.6485" cy="45.3996" r="1.5" transform="rotate(55 83.6485 45.3996)" fill="#273859"/>
<circle cx="79.5528" cy="48.2678" r="1.5" transform="rotate(55 79.5528 48.2678)" fill="#273859"/>
<circle cx="75.4568" cy="51.1355" r="1.5" transform="rotate(55 75.4568 51.1355)" fill="#273859"/>
<circle cx="71.3611" cy="54.0032" r="1.5" transform="rotate(55 71.3611 54.0032)" fill="#273859"/>
<circle cx="67.2654" cy="56.8713" r="1.5" transform="rotate(55 67.2654 56.8713)" fill="#273859"/>
<circle cx="63.1697" cy="59.739" r="1.5" transform="rotate(55 63.1697 59.739)" fill="#273859"/>
<circle cx="106.995" cy="35.156" r="1.5" transform="rotate(55 106.995 35.156)" fill="#273859"/>
<circle cx="102.899" cy="38.0237" r="1.5" transform="rotate(55 102.899 38.0237)" fill="#273859"/>
<circle cx="98.8038" cy="40.8918" r="1.5" transform="rotate(55 98.8038 40.8918)" fill="#273859"/>
<circle cx="94.7078" cy="43.7595" r="1.5" transform="rotate(55 94.7078 43.7595)" fill="#273859"/>
<circle cx="90.6121" cy="46.6277" r="1.5" transform="rotate(55 90.6121 46.6277)" fill="#273859"/>
<circle cx="86.5164" cy="49.4953" r="1.5" transform="rotate(55 86.5164 49.4953)" fill="#273859"/>
<circle cx="82.4207" cy="52.3635" r="1.5" transform="rotate(55 82.4207 52.3635)" fill="#273859"/>
<circle cx="78.3248" cy="55.2312" r="1.5" transform="rotate(55 78.3248 55.2312)" fill="#273859"/>
<circle cx="74.229" cy="58.0989" r="1.5" transform="rotate(55 74.229 58.0989)" fill="#273859"/>
<circle cx="70.1333" cy="60.967" r="1.5" transform="rotate(55 70.1333 60.967)" fill="#273859"/>
<circle cx="66.0376" cy="63.8347" r="1.5" transform="rotate(55 66.0376 63.8347)" fill="#273859"/>
<circle cx="109.863" cy="39.2517" r="1.5" transform="rotate(55 109.863 39.2517)" fill="#273859"/>
<circle cx="105.767" cy="42.1194" r="1.5" transform="rotate(55 105.767 42.1194)" fill="#273859"/>
<circle cx="101.671" cy="44.9875" r="1.5" transform="rotate(55 101.671 44.9875)" fill="#273859"/>
<circle cx="97.5755" cy="47.8552" r="1.5" transform="rotate(55 97.5755 47.8552)" fill="#273859"/>
<circle cx="93.4798" cy="50.7234" r="1.5" transform="rotate(55 93.4798 50.7234)" fill="#273859"/>
<circle cx="89.3841" cy="53.591" r="1.5" transform="rotate(55 89.3841 53.591)" fill="#273859"/>
<circle cx="85.2884" cy="56.4592" r="1.5" transform="rotate(55 85.2884 56.4592)" fill="#273859"/>
<circle cx="81.1924" cy="59.3269" r="1.5" transform="rotate(55 81.1924 59.3269)" fill="#273859"/>
<circle cx="77.0967" cy="62.1946" r="1.5" transform="rotate(55 77.0967 62.1946)" fill="#273859"/>
<circle cx="73.001" cy="65.0627" r="1.5" transform="rotate(55 73.001 65.0627)" fill="#273859"/>
<circle cx="68.9053" cy="67.9304" r="1.5" transform="rotate(55 68.9053 67.9304)" fill="#273859"/>
<circle cx="43.0945" cy="31.0686" r="1.5" transform="rotate(55 43.0945 31.0686)" fill="#273859"/>
<circle cx="38.9988" cy="33.9363" r="1.5" transform="rotate(55 38.9988 33.9363)" fill="#273859"/>
<circle cx="34.9031" cy="36.8044" r="1.5" transform="rotate(55 34.9031 36.8044)" fill="#273859"/>
<circle cx="30.8072" cy="39.6721" r="1.5" transform="rotate(55 30.8072 39.6721)" fill="#273859"/>
<circle cx="26.7115" cy="42.5403" r="1.5" transform="rotate(55 26.7115 42.5403)" fill="#273859"/>
<circle cx="22.6158" cy="45.4079" r="1.5" transform="rotate(55 22.6158 45.4079)" fill="#273859"/>
<circle cx="18.5201" cy="48.2761" r="1.5" transform="rotate(55 18.5201 48.2761)" fill="#273859"/>
<circle cx="14.4241" cy="51.1438" r="1.5" transform="rotate(55 14.4241 51.1438)" fill="#273859"/>
<circle cx="10.3284" cy="54.0115" r="1.5" transform="rotate(55 10.3284 54.0115)" fill="#273859"/>
<circle cx="6.23271" cy="56.8796" r="1.5" transform="rotate(55 6.23271 56.8796)" fill="#273859"/>
<circle cx="2.13701" cy="59.7473" r="1.5" transform="rotate(55 2.13701 59.7473)" fill="#273859"/>
<circle cx="45.9624" cy="35.1643" r="1.5" transform="rotate(55 45.9624 35.1643)" fill="#273859"/>
<circle cx="41.8667" cy="38.032" r="1.5" transform="rotate(55 41.8667 38.032)" fill="#273859"/>
<circle cx="37.771" cy="40.9001" r="1.5" transform="rotate(55 37.771 40.9001)" fill="#273859"/>
<circle cx="33.6751" cy="43.7678" r="1.5" transform="rotate(55 33.6751 43.7678)" fill="#273859"/>
<circle cx="29.5794" cy="46.636" r="1.5" transform="rotate(55 29.5794 46.636)" fill="#273859"/>
<circle cx="25.4837" cy="49.5036" r="1.5" transform="rotate(55 25.4837 49.5036)" fill="#273859"/>
<circle cx="21.388" cy="52.3718" r="1.5" transform="rotate(55 21.388 52.3718)" fill="#273859"/>
<circle cx="17.292" cy="55.2395" r="1.5" transform="rotate(55 17.292 55.2395)" fill="#273859"/>
<circle cx="13.1963" cy="58.1072" r="1.5" transform="rotate(55 13.1963 58.1072)" fill="#273859"/>
<circle cx="9.10063" cy="60.9753" r="1.5" transform="rotate(55 9.10063 60.9753)" fill="#273859"/>
<circle cx="5.00493" cy="63.843" r="1.5" transform="rotate(55 5.00493 63.843)" fill="#273859"/>
<circle cx="48.8304" cy="39.26" r="1.5" transform="rotate(55 48.8304 39.26)" fill="#273859"/>
<circle cx="44.7347" cy="42.1277" r="1.5" transform="rotate(55 44.7347 42.1277)" fill="#273859"/>
<circle cx="40.639" cy="44.9958" r="1.5" transform="rotate(55 40.639 44.9958)" fill="#273859"/>
<circle cx="36.543" cy="47.8635" r="1.5" transform="rotate(55 36.543 47.8635)" fill="#273859"/>
<circle cx="32.4473" cy="50.7317" r="1.5" transform="rotate(55 32.4473 50.7317)" fill="#273859"/>
<circle cx="28.3516" cy="53.5993" r="1.5" transform="rotate(55 28.3516 53.5993)" fill="#273859"/>
<circle cx="24.2559" cy="56.4675" r="1.5" transform="rotate(55 24.2559 56.4675)" fill="#273859"/>
<circle cx="20.16" cy="59.3352" r="1.5" transform="rotate(55 20.16 59.3352)" fill="#273859"/>
<circle cx="16.0643" cy="62.2029" r="1.5" transform="rotate(55 16.0643 62.2029)" fill="#273859"/>
<circle cx="11.9686" cy="65.071" r="1.5" transform="rotate(55 11.9686 65.071)" fill="#273859"/>
<circle cx="7.87285" cy="67.9387" r="1.5" transform="rotate(55 7.87285 67.9387)" fill="#273859"/>
<circle cx="51.6983" cy="43.3557" r="1.5" transform="rotate(55 51.6983 43.3557)" fill="#273859"/>
<circle cx="47.6026" cy="46.2234" r="1.5" transform="rotate(55 47.6026 46.2234)" fill="#273859"/>
<circle cx="43.5069" cy="49.0915" r="1.5" transform="rotate(55 43.5069 49.0915)" fill="#273859"/>
<circle cx="39.4109" cy="51.9592" r="1.5" transform="rotate(55 39.4109 51.9592)" fill="#273859"/>
<circle cx="35.3152" cy="54.8274" r="1.5" transform="rotate(55 35.3152 54.8274)" fill="#273859"/>
<circle cx="31.2195" cy="57.695" r="1.5" transform="rotate(55 31.2195 57.695)" fill="#273859"/>
<circle cx="27.1238" cy="60.5632" r="1.5" transform="rotate(55 27.1238 60.5632)" fill="#273859"/>
<circle cx="23.0279" cy="63.4309" r="1.5" transform="rotate(55 23.0279 63.4309)" fill="#273859"/>
<circle cx="18.9322" cy="66.2986" r="1.5" transform="rotate(55 18.9322 66.2986)" fill="#273859"/>
<circle cx="14.8365" cy="69.1667" r="1.5" transform="rotate(55 14.8365 69.1667)" fill="#273859"/>
<circle cx="10.7408" cy="72.0344" r="1.5" transform="rotate(55 10.7408 72.0344)" fill="#273859"/>
<circle cx="54.566" cy="47.4514" r="1.5" transform="rotate(55 54.566 47.4514)" fill="#273859"/>
<circle cx="50.4703" cy="50.3191" r="1.5" transform="rotate(55 50.4703 50.3191)" fill="#273859"/>
<circle cx="46.3746" cy="53.1872" r="1.5" transform="rotate(55 46.3746 53.1872)" fill="#273859"/>
<circle cx="42.2786" cy="56.0549" r="1.5" transform="rotate(55 42.2786 56.0549)" fill="#273859"/>
<circle cx="38.1829" cy="58.9231" r="1.5" transform="rotate(55 38.1829 58.9231)" fill="#273859"/>
<circle cx="34.0872" cy="61.7908" r="1.5" transform="rotate(55 34.0872 61.7908)" fill="#273859"/>
<circle cx="29.9915" cy="64.6589" r="1.5" transform="rotate(55 29.9915 64.6589)" fill="#273859"/>
<circle cx="25.8956" cy="67.5266" r="1.5" transform="rotate(55 25.8956 67.5266)" fill="#273859"/>
<circle cx="21.7998" cy="70.3943" r="1.5" transform="rotate(55 21.7998 70.3943)" fill="#273859"/>
<circle cx="17.7041" cy="73.2624" r="1.5" transform="rotate(55 17.7041 73.2624)" fill="#273859"/>
<circle cx="13.6084" cy="76.1301" r="1.5" transform="rotate(55 13.6084 76.1301)" fill="#273859"/>
</svg>
