<svg width="390" height="19" viewBox="0 0 390 19" fill="none" xmlns="http://www.w3.org/2000/svg">
<line x1="0.5" y1="9" x2="176.5" y2="8.99998" stroke="url(#paint0_linear_1161_2423)" stroke-linecap="round"/>
<path d="M191.64 7.952C192.6 7.952 193.363 8.08533 193.928 8.352C194.504 8.61867 194.915 9.056 195.16 9.664C195.416 10.272 195.544 11.0773 195.544 12.08C195.544 13.0827 195.416 13.888 195.16 14.496C194.915 15.0933 194.504 15.5307 193.928 15.808C193.363 16.0747 192.6 16.208 191.64 16.208C190.701 16.208 189.944 16.0747 189.368 15.808C188.803 15.5307 188.392 15.0933 188.136 14.496C187.88 13.888 187.752 13.0827 187.752 12.08C187.752 11.0773 187.88 10.272 188.136 9.664C188.392 9.056 188.803 8.61867 189.368 8.352C189.944 8.08533 190.701 7.952 191.64 7.952ZM191.64 9.424C191.171 9.424 190.797 9.504 190.52 9.664C190.253 9.81333 190.061 10.08 189.944 10.464C189.827 10.848 189.768 11.3867 189.768 12.08C189.768 12.7733 189.827 13.312 189.944 13.696C190.061 14.08 190.253 14.3467 190.52 14.496C190.797 14.6453 191.171 14.72 191.64 14.72C192.12 14.72 192.499 14.6453 192.776 14.496C193.053 14.3467 193.245 14.08 193.352 13.696C193.469 13.312 193.528 12.7733 193.528 12.08C193.528 11.3867 193.469 10.848 193.352 10.464C193.245 10.08 193.053 9.81333 192.776 9.664C192.499 9.504 192.12 9.424 191.64 9.424ZM198.873 8.144L199.129 9.68L199.305 9.904V16H197.369V8.144H198.873ZM202.713 7.952L202.521 9.744H201.961C201.545 9.744 201.124 9.81333 200.697 9.952C200.271 10.0907 199.737 10.2987 199.097 10.576L198.969 9.44C199.524 8.97067 200.089 8.608 200.665 8.352C201.241 8.08533 201.796 7.952 202.329 7.952H202.713Z" fill="#1A1F71"/>
<line x1="0.5" y1="-0.5" x2="176.5" y2="-0.5" transform="matrix(-1 -8.74228e-08 -8.74228e-08 1 390 9.5)" stroke="url(#paint1_linear_1161_2423)" stroke-linecap="round"/>
<defs>
<linearGradient id="paint0_linear_1161_2423" x1="-23.895" y1="9.5" x2="309.75" y2="9.49992" gradientUnits="userSpaceOnUse">
<stop stop-color="#4F4E4E" stop-opacity="0"/>
<stop offset="1" stop-color="#4F4E4E"/>
</linearGradient>
<linearGradient id="paint1_linear_1161_2423" x1="-23.895" y1="1.2415e-06" x2="309.75" y2="-5.30676e-05" gradientUnits="userSpaceOnUse">
<stop stop-color="#4F4E4E" stop-opacity="0"/>
<stop offset="1" stop-color="#4F4E4E"/>
</linearGradient>
</defs>
</svg>
