<svg width="112" height="74" viewBox="0 0 112 74" fill="none" xmlns="http://www.w3.org/2000/svg">
<circle cx="98.3466" cy="22.569" r="1.5" transform="rotate(55.0046 98.3466 22.569)" fill="#B0E2E2"/>
<circle cx="94.2506" cy="25.4367" r="1.5" transform="rotate(55.0046 94.2506 25.4367)" fill="#B0E2E2"/>
<circle cx="90.1547" cy="28.3039" r="1.5" transform="rotate(55.0046 90.1547 28.3039)" fill="#B0E2E2"/>
<circle cx="86.0585" cy="31.1716" r="1.5" transform="rotate(55.0046 86.0585 31.1716)" fill="#B0E2E2"/>
<circle cx="81.9625" cy="34.0393" r="1.5" transform="rotate(55.0046 81.9625 34.0393)" fill="#B0E2E2"/>
<circle cx="77.8666" cy="36.9069" r="1.5" transform="rotate(55.0046 77.8666 36.9069)" fill="#B0E2E2"/>
<circle cx="73.7706" cy="39.7741" r="1.5" transform="rotate(55.0046 73.7706 39.7741)" fill="#B0E2E2"/>
<circle cx="69.6747" cy="42.6418" r="1.5" transform="rotate(55.0046 69.6747 42.6418)" fill="#B0E2E2"/>
<circle cx="65.5787" cy="45.5095" r="1.5" transform="rotate(55.0046 65.5787 45.5095)" fill="#B0E2E2"/>
<circle cx="61.4825" cy="48.3771" r="1.5" transform="rotate(55.0046 61.4825 48.3771)" fill="#B0E2E2"/>
<circle cx="57.3866" cy="51.2443" r="1.5" transform="rotate(55.0046 57.3866 51.2443)" fill="#B0E2E2"/>
<circle cx="101.214" cy="26.6652" r="1.5" transform="rotate(55.0046 101.214 26.6652)" fill="#B0E2E2"/>
<circle cx="97.118" cy="29.5329" r="1.5" transform="rotate(55.0046 97.118 29.5329)" fill="#B0E2E2"/>
<circle cx="93.0221" cy="32.4001" r="1.5" transform="rotate(55.0046 93.0221 32.4001)" fill="#B0E2E2"/>
<circle cx="88.9259" cy="35.2678" r="1.5" transform="rotate(55.0046 88.9259 35.2678)" fill="#B0E2E2"/>
<circle cx="84.83" cy="38.1354" r="1.5" transform="rotate(55.0046 84.83 38.1354)" fill="#B0E2E2"/>
<circle cx="80.734" cy="41.0031" r="1.5" transform="rotate(55.0046 80.734 41.0031)" fill="#B0E2E2"/>
<circle cx="76.6381" cy="43.8703" r="1.5" transform="rotate(55.0046 76.6381 43.8703)" fill="#B0E2E2"/>
<circle cx="72.5421" cy="46.738" r="1.5" transform="rotate(55.0046 72.5421 46.738)" fill="#B0E2E2"/>
<circle cx="68.4462" cy="49.6057" r="1.5" transform="rotate(55.0046 68.4462 49.6057)" fill="#B0E2E2"/>
<circle cx="64.35" cy="52.4733" r="1.5" transform="rotate(55.0046 64.35 52.4733)" fill="#B0E2E2"/>
<circle cx="60.254" cy="55.3405" r="1.5" transform="rotate(55.0046 60.254 55.3405)" fill="#B0E2E2"/>
<circle cx="104.082" cy="30.7609" r="1.5" transform="rotate(55.0046 104.082 30.7609)" fill="#B0E2E2"/>
<circle cx="99.9857" cy="33.6286" r="1.5" transform="rotate(55.0046 99.9857 33.6286)" fill="#B0E2E2"/>
<circle cx="95.8898" cy="36.4958" r="1.5" transform="rotate(55.0046 95.8898 36.4958)" fill="#B0E2E2"/>
<circle cx="91.7936" cy="39.3635" r="1.5" transform="rotate(55.0046 91.7936 39.3635)" fill="#B0E2E2"/>
<circle cx="87.6976" cy="42.2312" r="1.5" transform="rotate(55.0046 87.6976 42.2312)" fill="#B0E2E2"/>
<circle cx="83.6017" cy="45.0988" r="1.5" transform="rotate(55.0046 83.6017 45.0988)" fill="#B0E2E2"/>
<circle cx="79.5057" cy="47.966" r="1.5" transform="rotate(55.0046 79.5057 47.966)" fill="#B0E2E2"/>
<circle cx="75.4098" cy="50.8337" r="1.5" transform="rotate(55.0046 75.4098 50.8337)" fill="#B0E2E2"/>
<circle cx="71.3138" cy="53.7014" r="1.5" transform="rotate(55.0046 71.3138 53.7014)" fill="#B0E2E2"/>
<circle cx="67.2177" cy="56.569" r="1.5" transform="rotate(55.0046 67.2177 56.569)" fill="#B0E2E2"/>
<circle cx="63.1217" cy="59.4362" r="1.5" transform="rotate(55.0046 63.1217 59.4362)" fill="#B0E2E2"/>
<circle cx="106.949" cy="34.8571" r="1.5" transform="rotate(55.0046 106.949 34.8571)" fill="#B0E2E2"/>
<circle cx="102.853" cy="37.7248" r="1.5" transform="rotate(55.0046 102.853 37.7248)" fill="#B0E2E2"/>
<circle cx="98.7572" cy="40.592" r="1.5" transform="rotate(55.0046 98.7572 40.592)" fill="#B0E2E2"/>
<circle cx="94.661" cy="43.4597" r="1.5" transform="rotate(55.0046 94.661 43.4597)" fill="#B0E2E2"/>
<circle cx="90.5651" cy="46.3273" r="1.5" transform="rotate(55.0046 90.5651 46.3273)" fill="#B0E2E2"/>
<circle cx="86.4691" cy="49.195" r="1.5" transform="rotate(55.0046 86.4691 49.195)" fill="#B0E2E2"/>
<circle cx="82.3732" cy="52.0622" r="1.5" transform="rotate(55.0046 82.3732 52.0622)" fill="#B0E2E2"/>
<circle cx="78.2772" cy="54.9299" r="1.5" transform="rotate(55.0046 78.2772 54.9299)" fill="#B0E2E2"/>
<circle cx="74.1813" cy="57.7976" r="1.5" transform="rotate(55.0046 74.1813 57.7976)" fill="#B0E2E2"/>
<circle cx="70.0851" cy="60.6652" r="1.5" transform="rotate(55.0046 70.0851 60.6652)" fill="#B0E2E2"/>
<circle cx="65.9891" cy="63.5324" r="1.5" transform="rotate(55.0046 65.9891 63.5324)" fill="#B0E2E2"/>
<circle cx="109.817" cy="38.9528" r="1.5" transform="rotate(55.0046 109.817 38.9528)" fill="#B0E2E2"/>
<circle cx="105.721" cy="41.8205" r="1.5" transform="rotate(55.0046 105.721 41.8205)" fill="#B0E2E2"/>
<circle cx="101.625" cy="44.6877" r="1.5" transform="rotate(55.0046 101.625 44.6877)" fill="#B0E2E2"/>
<circle cx="97.5287" cy="47.5554" r="1.5" transform="rotate(55.0046 97.5287 47.5554)" fill="#B0E2E2"/>
<circle cx="93.4327" cy="50.423" r="1.5" transform="rotate(55.0046 93.4327 50.423)" fill="#B0E2E2"/>
<circle cx="89.3368" cy="53.2907" r="1.5" transform="rotate(55.0046 89.3368 53.2907)" fill="#B0E2E2"/>
<circle cx="85.2408" cy="56.1579" r="1.5" transform="rotate(55.0046 85.2408 56.1579)" fill="#B0E2E2"/>
<circle cx="81.1449" cy="59.0256" r="1.5" transform="rotate(55.0046 81.1449 59.0256)" fill="#B0E2E2"/>
<circle cx="77.049" cy="61.8933" r="1.5" transform="rotate(55.0046 77.049 61.8933)" fill="#B0E2E2"/>
<circle cx="72.9528" cy="64.7609" r="1.5" transform="rotate(55.0046 72.9528 64.7609)" fill="#B0E2E2"/>
<circle cx="68.8568" cy="67.6281" r="1.5" transform="rotate(55.0046 68.8568 67.6281)" fill="#B0E2E2"/>
<circle cx="43.0489" cy="30.7644" r="1.5" transform="rotate(55.0046 43.0489 30.7644)" fill="#B0E2E2"/>
<circle cx="38.953" cy="33.632" r="1.5" transform="rotate(55.0046 38.953 33.632)" fill="#B0E2E2"/>
<circle cx="34.8571" cy="36.4992" r="1.5" transform="rotate(55.0046 34.8571 36.4992)" fill="#B0E2E2"/>
<circle cx="30.7609" cy="39.3669" r="1.5" transform="rotate(55.0046 30.7609 39.3669)" fill="#B0E2E2"/>
<circle cx="26.6649" cy="42.2346" r="1.5" transform="rotate(55.0046 26.6649 42.2346)" fill="#B0E2E2"/>
<circle cx="22.569" cy="45.1022" r="1.5" transform="rotate(55.0046 22.569 45.1022)" fill="#B0E2E2"/>
<circle cx="18.473" cy="47.9694" r="1.5" transform="rotate(55.0046 18.473 47.9694)" fill="#B0E2E2"/>
<circle cx="14.3771" cy="50.8371" r="1.5" transform="rotate(55.0046 14.3771 50.8371)" fill="#B0E2E2"/>
<circle cx="10.2811" cy="53.7048" r="1.5" transform="rotate(55.0046 10.2811 53.7048)" fill="#B0E2E2"/>
<circle cx="6.18493" cy="56.5725" r="1.5" transform="rotate(55.0046 6.18493 56.5725)" fill="#B0E2E2"/>
<circle cx="2.08899" cy="59.4396" r="1.5" transform="rotate(55.0046 2.08899 59.4396)" fill="#B0E2E2"/>
<circle cx="45.9164" cy="34.8605" r="1.5" transform="rotate(55.0046 45.9164 34.8605)" fill="#B0E2E2"/>
<circle cx="41.8204" cy="37.7282" r="1.5" transform="rotate(55.0046 41.8204 37.7282)" fill="#B0E2E2"/>
<circle cx="37.7245" cy="40.5954" r="1.5" transform="rotate(55.0046 37.7245 40.5954)" fill="#B0E2E2"/>
<circle cx="33.6283" cy="43.4631" r="1.5" transform="rotate(55.0046 33.6283 43.4631)" fill="#B0E2E2"/>
<circle cx="29.5323" cy="46.3308" r="1.5" transform="rotate(55.0046 29.5323 46.3308)" fill="#B0E2E2"/>
<circle cx="25.4364" cy="49.1984" r="1.5" transform="rotate(55.0046 25.4364 49.1984)" fill="#B0E2E2"/>
<circle cx="21.3405" cy="52.0656" r="1.5" transform="rotate(55.0046 21.3405 52.0656)" fill="#B0E2E2"/>
<circle cx="17.2445" cy="54.9333" r="1.5" transform="rotate(55.0046 17.2445 54.9333)" fill="#B0E2E2"/>
<circle cx="13.1486" cy="57.801" r="1.5" transform="rotate(55.0046 13.1486 57.801)" fill="#B0E2E2"/>
<circle cx="9.05237" cy="60.6687" r="1.5" transform="rotate(55.0046 9.05237 60.6687)" fill="#B0E2E2"/>
<circle cx="4.95642" cy="63.5358" r="1.5" transform="rotate(55.0046 4.95642 63.5358)" fill="#B0E2E2"/>
<circle cx="48.7841" cy="38.9562" r="1.5" transform="rotate(55.0046 48.7841 38.9562)" fill="#B0E2E2"/>
<circle cx="44.6881" cy="41.8239" r="1.5" transform="rotate(55.0046 44.6881 41.8239)" fill="#B0E2E2"/>
<circle cx="40.5922" cy="44.6911" r="1.5" transform="rotate(55.0046 40.5922 44.6911)" fill="#B0E2E2"/>
<circle cx="36.496" cy="47.5588" r="1.5" transform="rotate(55.0046 36.496 47.5588)" fill="#B0E2E2"/>
<circle cx="32.4" cy="50.4265" r="1.5" transform="rotate(55.0046 32.4 50.4265)" fill="#B0E2E2"/>
<circle cx="28.3041" cy="53.2941" r="1.5" transform="rotate(55.0046 28.3041 53.2941)" fill="#B0E2E2"/>
<circle cx="24.2081" cy="56.1613" r="1.5" transform="rotate(55.0046 24.2081 56.1613)" fill="#B0E2E2"/>
<circle cx="20.1122" cy="59.029" r="1.5" transform="rotate(55.0046 20.1122 59.029)" fill="#B0E2E2"/>
<circle cx="16.0162" cy="61.8967" r="1.5" transform="rotate(55.0046 16.0162 61.8967)" fill="#B0E2E2"/>
<circle cx="11.92" cy="64.7644" r="1.5" transform="rotate(55.0046 11.92 64.7644)" fill="#B0E2E2"/>
<circle cx="7.82409" cy="67.6315" r="1.5" transform="rotate(55.0046 7.82409 67.6315)" fill="#B0E2E2"/>
<circle cx="51.6515" cy="43.0524" r="1.5" transform="rotate(55.0046 51.6515 43.0524)" fill="#B0E2E2"/>
<circle cx="47.5555" cy="45.9201" r="1.5" transform="rotate(55.0046 47.5555 45.9201)" fill="#B0E2E2"/>
<circle cx="43.4596" cy="48.7873" r="1.5" transform="rotate(55.0046 43.4596 48.7873)" fill="#B0E2E2"/>
<circle cx="39.3634" cy="51.655" r="1.5" transform="rotate(55.0046 39.3634 51.655)" fill="#B0E2E2"/>
<circle cx="35.2675" cy="54.5227" r="1.5" transform="rotate(55.0046 35.2675 54.5227)" fill="#B0E2E2"/>
<circle cx="31.1715" cy="57.3903" r="1.5" transform="rotate(55.0046 31.1715 57.3903)" fill="#B0E2E2"/>
<circle cx="27.0756" cy="60.2575" r="1.5" transform="rotate(55.0046 27.0756 60.2575)" fill="#B0E2E2"/>
<circle cx="22.9796" cy="63.1252" r="1.5" transform="rotate(55.0046 22.9796 63.1252)" fill="#B0E2E2"/>
<circle cx="18.8837" cy="65.9929" r="1.5" transform="rotate(55.0046 18.8837 65.9929)" fill="#B0E2E2"/>
<circle cx="14.7875" cy="68.8605" r="1.5" transform="rotate(55.0046 14.7875 68.8605)" fill="#B0E2E2"/>
<circle cx="10.6915" cy="71.7277" r="1.5" transform="rotate(55.0046 10.6915 71.7277)" fill="#B0E2E2"/>
<circle cx="54.5192" cy="47.1481" r="1.5" transform="rotate(55.0046 54.5192 47.1481)" fill="#B0E2E2"/>
<circle cx="50.4232" cy="50.0158" r="1.5" transform="rotate(55.0046 50.4232 50.0158)" fill="#B0E2E2"/>
<circle cx="46.3273" cy="52.883" r="1.5" transform="rotate(55.0046 46.3273 52.883)" fill="#B0E2E2"/>
<circle cx="42.2311" cy="55.7507" r="1.5" transform="rotate(55.0046 42.2311 55.7507)" fill="#B0E2E2"/>
<circle cx="38.1351" cy="58.6184" r="1.5" transform="rotate(55.0046 38.1351 58.6184)" fill="#B0E2E2"/>
<circle cx="34.0392" cy="61.486" r="1.5" transform="rotate(55.0046 34.0392 61.486)" fill="#B0E2E2"/>
<circle cx="29.9432" cy="64.3532" r="1.5" transform="rotate(55.0046 29.9432 64.3532)" fill="#B0E2E2"/>
<circle cx="25.8473" cy="67.2209" r="1.5" transform="rotate(55.0046 25.8473 67.2209)" fill="#B0E2E2"/>
<circle cx="21.7513" cy="70.0886" r="1.5" transform="rotate(55.0046 21.7513 70.0886)" fill="#B0E2E2"/>
<circle cx="17.6551" cy="72.9563" r="1.5" transform="rotate(55.0046 17.6551 72.9563)" fill="#B0E2E2"/>
<circle cx="13.5592" cy="75.8234" r="1.5" transform="rotate(55.0046 13.5592 75.8234)" fill="#B0E2E2"/>
</svg>
