<svg width="21" height="16" viewBox="0 0 21 16" fill="none" xmlns="http://www.w3.org/2000/svg">
<path d="M2.64394 0.800003H18.5439C20.0439 0.800003 20.7999 1.508 20.7999 2.948V13.052C20.7999 14.48 20.0439 15.2 18.5439 15.2H2.64394C1.14394 15.2 0.387939 14.48 0.387939 13.052V2.948C0.387939 1.508 1.14394 0.800003 2.64394 0.800003ZM10.5879 11.12L18.6759 4.484C18.9639 4.244 19.1919 3.692 18.8319 3.2C18.4839 2.708 17.8479 2.696 17.4279 2.996L10.5879 7.628L3.75994 2.996C3.33994 2.696 2.70394 2.708 2.35594 3.2C1.99594 3.692 2.22394 4.244 2.51194 4.484L10.5879 11.12Z" fill="white"/>
</svg>
