<svg width="24" height="24" viewBox="0 0 24 24" fill="none" xmlns="http://www.w3.org/2000/svg">
<path opacity="0.4" d="M21.24 7.80794V7.81V16.19C21.24 17.8608 20.7449 19.1045 19.9197 19.9297C19.0945 20.7549 17.8508 21.25 16.18 21.25H7.81C6.13917 21.25 4.89575 20.7549 4.07066 19.9288C3.24546 19.1025 2.75 17.8564 2.75 16.18V7.81C2.75 6.13915 3.24514 4.89552 4.07033 4.07033C4.89552 3.24514 6.13915 2.75 7.81 2.75H16.19C17.861 2.75 19.1043 3.24521 19.9281 4.07C20.7517 4.89463 21.2446 6.13757 21.24 7.80794Z" fill="#B0E2E2" stroke="#00A3A3" stroke-width="1.5"/>
<mask id="path-2-inside-1_471_3548" fill="white">
<path d="M6.87988 18.9001C6.46988 18.9001 6.12988 18.5601 6.12988 18.1501V16.0801C6.12988 15.6701 6.46988 15.3301 6.87988 15.3301C7.28988 15.3301 7.62988 15.6701 7.62988 16.0801V18.1501C7.62988 18.5701 7.28988 18.9001 6.87988 18.9001Z"/>
</mask>
<path d="M6.87988 18.9001C6.46988 18.9001 6.12988 18.5601 6.12988 18.1501V16.0801C6.12988 15.6701 6.46988 15.3301 6.87988 15.3301C7.28988 15.3301 7.62988 15.6701 7.62988 16.0801V18.1501C7.62988 18.5701 7.28988 18.9001 6.87988 18.9001Z" fill="#B0E2E2"/>
<path d="M6.87988 17.4001C7.29831 17.4001 7.62988 17.7317 7.62988 18.1501H4.62988C4.62988 19.3885 5.64146 20.4001 6.87988 20.4001V17.4001ZM7.62988 18.1501V16.0801H4.62988V18.1501H7.62988ZM7.62988 16.0801C7.62988 16.4985 7.29831 16.8301 6.87988 16.8301V13.8301C5.64146 13.8301 4.62988 14.8417 4.62988 16.0801H7.62988ZM6.87988 16.8301C6.46146 16.8301 6.12988 16.4985 6.12988 16.0801H9.12988C9.12988 14.8417 8.11831 13.8301 6.87988 13.8301V16.8301ZM6.12988 16.0801V18.1501H9.12988V16.0801H6.12988ZM6.12988 18.1501C6.12988 17.7286 6.47452 17.4001 6.87988 17.4001V20.4001C8.10525 20.4001 9.12988 19.4115 9.12988 18.1501H6.12988Z" fill="#00A3A3" mask="url(#path-2-inside-1_471_3548)"/>
<mask id="path-4-inside-2_471_3548" fill="white">
<path d="M12 18.9C11.59 18.9 11.25 18.56 11.25 18.15V14C11.25 13.59 11.59 13.25 12 13.25C12.41 13.25 12.75 13.59 12.75 14V18.15C12.75 18.57 12.41 18.9 12 18.9Z"/>
</mask>
<path d="M12 18.9C11.59 18.9 11.25 18.56 11.25 18.15V14C11.25 13.59 11.59 13.25 12 13.25C12.41 13.25 12.75 13.59 12.75 14V18.15C12.75 18.57 12.41 18.9 12 18.9Z" fill="#B0E2E2"/>
<path d="M12 17.4C12.4184 17.4 12.75 17.7316 12.75 18.15H9.75C9.75 19.3884 10.7616 20.4 12 20.4V17.4ZM12.75 18.15V14H9.75V18.15H12.75ZM12.75 14C12.75 14.4184 12.4184 14.75 12 14.75V11.75C10.7616 11.75 9.75 12.7616 9.75 14H12.75ZM12 14.75C11.5816 14.75 11.25 14.4184 11.25 14H14.25C14.25 12.7616 13.2384 11.75 12 11.75V14.75ZM11.25 14V18.15H14.25V14H11.25ZM11.25 18.15C11.25 17.7286 11.5946 17.4 12 17.4V20.4C13.2254 20.4 14.25 19.4114 14.25 18.15H11.25Z" fill="#00A3A3" mask="url(#path-4-inside-2_471_3548)"/>
<mask id="path-6-inside-3_471_3548" fill="white">
<path d="M17.1201 18.8999C16.7101 18.8999 16.3701 18.5599 16.3701 18.1499V11.9299C16.3701 11.5199 16.7101 11.1799 17.1201 11.1799C17.5301 11.1799 17.8701 11.5199 17.8701 11.9299V18.1499C17.8701 18.5699 17.5401 18.8999 17.1201 18.8999Z"/>
</mask>
<path d="M17.1201 18.8999C16.7101 18.8999 16.3701 18.5599 16.3701 18.1499V11.9299C16.3701 11.5199 16.7101 11.1799 17.1201 11.1799C17.5301 11.1799 17.8701 11.5199 17.8701 11.9299V18.1499C17.8701 18.5699 17.5401 18.8999 17.1201 18.8999Z" fill="#B0E2E2"/>
<path d="M17.1201 17.3999C17.5385 17.3999 17.8701 17.7315 17.8701 18.1499H14.8701C14.8701 19.3884 15.8817 20.3999 17.1201 20.3999V17.3999ZM17.8701 18.1499V11.9299H14.8701V18.1499H17.8701ZM17.8701 11.9299C17.8701 12.3484 17.5385 12.6799 17.1201 12.6799V9.67993C15.8817 9.67993 14.8701 10.6915 14.8701 11.9299H17.8701ZM17.1201 12.6799C16.7017 12.6799 16.3701 12.3484 16.3701 11.9299H19.3701C19.3701 10.6915 18.3585 9.67993 17.1201 9.67993V12.6799ZM16.3701 11.9299V18.1499H19.3701V11.9299H16.3701ZM16.3701 18.1499C16.3701 17.7415 16.7117 17.3999 17.1201 17.3999V20.3999C18.3685 20.3999 19.3701 19.3984 19.3701 18.1499H16.3701Z" fill="#00A3A3" mask="url(#path-6-inside-3_471_3548)"/>
<path d="M17.1172 5.8408C17.1181 5.84228 17.119 5.84374 17.1199 5.84517C17.1199 5.8452 17.12 5.84523 17.12 5.84526V5.84529V5.84535V5.84541V5.84547V5.84553V5.84559V5.84564V5.8457V5.84576V5.84582V5.84588V5.84594V5.846V5.84605V5.84611V5.84617V5.84623V5.84629V5.84635V5.84641V5.84646V5.84652V5.84658V5.84664V5.8467V5.84676V5.84682V5.84688V5.84693V5.84699V5.84705V5.84711V5.84717V5.84723V5.84729V5.84734V5.8474V5.84746V5.84752V5.84758V5.84764V5.8477V5.84775V5.84781V5.84787V5.84793V5.84799V5.84805V5.84811V5.84816V5.84822V5.84828V5.84834V5.8484V5.84846V5.84852V5.84857V5.84863V5.84869V5.84875V5.84881V5.84887V5.84893V5.84898V5.84904V5.8491V5.84916V5.84922V5.84928V5.84934V5.84939V5.84945V5.84951V5.84957V5.84963V5.84969V5.84975V5.84979C17.1192 5.84947 17.1183 5.84915 17.1175 5.84883C17.1161 5.84828 17.1146 5.84772 17.1132 5.84714C17.1129 5.8461 17.1127 5.84504 17.1124 5.84396L17.1172 5.8408ZM6.88042 12.4392C6.88108 12.4384 6.88166 12.4379 6.882 12.4376L17.12 5.96419L15.8325 7.287C13.3858 9.80091 10.3292 11.5763 6.90815 12.435L6.89919 12.4364C6.89114 12.4377 6.88509 12.4386 6.88042 12.4392ZM17.1208 5.85001C17.1207 5.84878 17.1207 5.84752 17.1206 5.84623C17.1214 5.84752 17.1222 5.8488 17.123 5.85005C17.1223 5.85004 17.1215 5.85003 17.1208 5.85001Z" fill="#B0E2E2" stroke="#00A3A3" stroke-width="1.5"/>
</svg>
