<svg width="30" height="31" viewBox="0 0 30 31" fill="none" xmlns="http://www.w3.org/2000/svg">
<path d="M24.3764 8L22.543 9.375C22.1103 9.69955 21.584 9.875 21.043 9.875H16.8451C16.0983 9.875 15.4154 10.297 15.0814 10.9651C14.6691 11.7895 14.883 12.7895 15.5964 13.3733L18.0964 15.4186C20.0638 17.0284 21.0819 19.525 20.8013 22.0515L20.7763 22.2758C20.6768 23.1711 20.4568 24.049 20.1223 24.8854L19.3764 26.75" stroke="#00A3A3" stroke-width="1.25"/>
<path d="M3.125 13.6217L7.17263 12.9471C8.86468 12.665 10.3316 14.132 10.0496 15.824L9.88146 16.8329C9.58042 18.6392 10.4926 20.4305 12.1305 21.2494C13.4419 21.9052 14.122 23.3838 13.7664 24.8062L13.125 27.3717" stroke="#00A3A3" stroke-width="1.25"/>
<path d="M15 27.375C21.5584 27.375 26.875 22.0584 26.875 15.5C26.875 8.94162 21.5584 3.625 15 3.625C8.44162 3.625 3.125 8.94162 3.125 15.5C3.125 22.0584 8.44162 27.375 15 27.375Z" stroke="#00A3A3" stroke-width="1.25"/>
</svg>
